<svg width="25" height="24" viewBox="0 0 25 24" fill="none" xmlns="http://www.w3.org/2000/svg">
<path d="M23.5 6V2C23.5 1.73478 23.3946 1.48043 23.2071 1.29289C23.0196 1.10536 22.7652 1 22.5 1H2.5C2.23478 1 1.98043 1.10536 1.79289 1.29289C1.60536 1.48043 1.5 1.73478 1.5 2V6H23.5Z" fill="#2EC5CE"/>
<path d="M1.5 8V22C1.5 22.2652 1.60536 22.5196 1.79289 22.7071C1.98043 22.8946 2.23478 23 2.5 23H7.5V8H1.5Z" fill="#F8C60C"/>
<path d="M9.5 23H22.5C22.7652 23 23.0196 22.8946 23.2071 22.7071C23.3946 22.5196 23.5 22.2652 23.5 22V8H9.5V23Z" fill="#1881B0"/>
</svg>
