<svg width="42" height="42" viewBox="0 0 42 42" fill="none" xmlns="http://www.w3.org/2000/svg">
<g clip-path="url(#clip0_477_2572)">
<path d="M14.0273 34.8633C14.0273 35.5428 14.5783 36.0938 15.2578 36.0938H26.7422C27.4217 36.0938 27.9727 35.5428 27.9727 34.8633V31.9922H14.0273V34.8633ZM16.0781 40.7695C16.0781 41.4491 16.629 42 17.3086 42H24.6914C25.371 42 25.9219 41.4491 25.9219 40.7695V38.5547H16.0781V40.7695ZM26.9631 12.0996H26.1317C26.133 12.8892 26.1373 15.847 26.1398 16.6058C26.4676 16.6035 26.7976 16.6006 26.9996 16.5971C28.0969 16.5779 28.5879 15.4574 28.5879 14.3555C28.5879 13.8263 28.4707 12.0996 26.9631 12.0996Z" fill="#1881B0"/>
<path d="M21 0C13.0844 0 6.64454 6.43986 6.64454 14.3555C6.64454 18.4502 8.4064 22.3597 11.4781 25.0816C12.7888 26.243 13.6471 27.82 13.9271 29.5312H28.0729C28.353 27.82 29.2112 26.243 30.5218 25.0816C33.5936 22.3597 35.3555 18.4502 35.3555 14.3555C35.3555 6.43986 28.9156 0 21 0ZM15.5107 18.6566C14.7651 18.6607 14.2538 18.6626 13.8999 18.6626C13.1548 18.6626 13.1067 18.6543 13.0339 18.6419C12.7954 18.6011 12.579 18.4772 12.4231 18.2923C12.2671 18.1073 12.1816 17.8732 12.1816 17.6312V11.0742C12.1816 10.508 12.6407 10.0488 13.207 10.0488C13.7732 10.0488 14.2323 10.508 14.2323 11.0742V16.6108C14.6173 16.61 15.0695 16.6082 15.4992 16.6058H15.5051C16.0687 16.6058 16.5271 17.0611 16.5303 17.6255C16.5336 18.1917 16.0771 18.6534 15.5107 18.6566ZM21.5106 13.3301C22.0768 13.3301 22.536 13.7891 22.536 14.3555C22.536 14.9218 22.0768 15.3809 21.5106 15.3809H19.9746V16.6113H21.7144C22.2807 16.6113 22.7398 17.0705 22.7398 17.6367C22.7398 18.203 22.2807 18.6621 21.7144 18.6621H18.9492C18.383 18.6621 17.9238 18.203 17.9238 17.6367V11.0742C17.9238 10.508 18.383 10.0488 18.9492 10.0488H21.7144C22.2807 10.0488 22.7398 10.508 22.7398 11.0742C22.7398 11.6405 22.2807 12.0996 21.7144 12.0996H19.9746V13.3301H21.5106ZM27.0354 18.6475C26.5045 18.6568 25.1779 18.6619 25.1217 18.6621H25.1178C24.8465 18.6621 24.5863 18.5545 24.3941 18.363C24.2019 18.1715 24.0934 17.9117 24.0924 17.6404L24.0791 11.0762C24.0789 10.9414 24.1052 10.8078 24.1566 10.6832C24.2081 10.5586 24.2836 10.4453 24.3788 10.3499C24.474 10.2545 24.5872 10.1788 24.7117 10.1271C24.8362 10.0755 24.9697 10.0489 25.1045 10.0489H26.9631C29.1615 10.0489 30.6387 11.7796 30.6387 14.3556C30.6387 16.806 29.1232 18.611 27.0354 18.6475ZM38.0383 8.8935L41.3196 7.25287C41.9274 6.94895 42.1738 6.20985 41.8698 5.602C41.5659 4.99423 40.8268 4.7478 40.219 5.05173L36.9378 6.69236C36.3299 6.99628 36.0836 7.73538 36.3875 8.34323C36.6914 8.95109 37.4305 9.19743 38.0383 8.8935ZM41.3196 21.4581L38.0383 19.8174C37.4305 19.5135 36.6914 19.7599 36.3875 20.3677C36.0836 20.9756 36.3299 21.7147 36.9378 22.0186L40.219 23.6592C40.8268 23.9631 41.5659 23.7168 41.8698 23.1089C42.1738 22.5011 41.9274 21.762 41.3196 21.4581ZM5.06232 6.69244L1.78107 5.05181C1.1733 4.74789 0.434195 4.99423 0.13027 5.60208C-0.173656 6.20993 0.0726837 6.94903 0.680535 7.25296L3.96179 8.89358C4.56964 9.19751 5.30874 8.95117 5.61258 8.34332C5.91651 7.73547 5.67009 6.99636 5.06232 6.69244ZM3.9617 19.8174L0.680453 21.4581C0.0726017 21.762 -0.173738 22.5011 0.130188 23.1089C0.434113 23.7167 1.17322 23.9631 1.78098 23.6592L5.06223 22.0186C5.67009 21.7147 5.91643 20.9756 5.6125 20.3677C5.30866 19.7599 4.56956 19.5135 3.9617 19.8174Z" fill="#1881B0"/>
</g>
<defs>
<clipPath id="clip0_477_2572">
<rect width="42" height="42" fill="white"/>
</clipPath>
</defs>
</svg>
