<svg width="42" height="42" viewBox="0 0 42 42" fill="none" xmlns="http://www.w3.org/2000/svg">
<path d="M32.0742 20.0977C32.0742 18.7407 30.9702 17.6367 29.6133 17.6367H27.1523C25.7954 17.6367 24.6914 18.7407 24.6914 20.0977V28.7109H32.0742V20.0977ZM5.00391 6.15234C5.00391 4.11715 6.66012 2.46094 8.69531 2.46094H11.1562C12.8194 2.46094 14.2288 3.56705 14.6888 5.082C11.9636 5.7138 9.92578 8.15965 9.92578 11.0742V12.3047H22.2305V11.0742C22.2305 8.0663 20.0602 5.55737 17.2036 5.02688C16.6731 2.17005 14.1638 0 11.1562 0H8.69531C5.30332 0 2.54297 2.75953 2.54297 6.15234V17.6367H5.00391V6.15234Z" fill="#1881B0"/>
<path d="M34.5352 31.1719H22.2305V27.4805H2.54297V31.1719C2.54297 34.3917 4.31895 37.2039 6.94247 38.6817L5.36435 40.2598L7.1044 42L9.48289 39.6215C10.034 39.7304 10.5945 39.7852 11.1562 39.7852H30.8438C31.4162 39.7852 31.9756 39.7285 32.5171 39.6215L34.8956 42L36.6357 40.2599L35.0576 38.6818C37.6811 37.2039 39.457 34.3917 39.457 31.1719V27.4805H34.5352V31.1719ZM39.5391 20.0977H34.5352V25.0195H39.5391C40.8959 25.0195 42 23.9154 42 22.5586C42 21.2018 40.8959 20.0977 39.5391 20.0977ZM22.2305 20.0977H2.46094C1.10414 20.0977 0 21.2018 0 22.5586C0 23.9154 1.10414 25.0195 2.46094 25.0195H22.2305V20.0977Z" fill="#1881B0"/>
</svg>
