<svg width="27" height="65" viewBox="0 0 27 65" fill="none" xmlns="http://www.w3.org/2000/svg">
<path d="M11.1508 13.1802H0C0 6.57897 4.83945 1.07048 11.1508 0V13.1802ZM15.6111 0V13.1802H26.7619C26.7619 6.57897 21.9225 1.07048 15.6111 0ZM0 26.5612C0 33.9207 6.02143 39.9422 13.381 39.9422C20.7405 39.9422 26.7619 33.9207 26.7619 26.5612V17.6406H0V26.5612Z" fill="white"/>
<path d="M12.2929 64.6492C12.6834 65.0398 13.3166 65.0398 13.7071 64.6492L20.0711 58.2853C20.4616 57.8948 20.4616 57.2616 20.0711 56.8711C19.6805 56.4805 19.0474 56.4805 18.6569 56.8711L13 62.5279L7.34315 56.8711C6.95262 56.4805 6.31946 56.4805 5.92893 56.8711C5.53841 57.2616 5.53841 57.8948 5.92893 58.2853L12.2929 64.6492ZM12 49.9421L12 63.9421L14 63.9421L14 49.9421L12 49.9421Z" fill="white"/>
</svg>
