<svg width="42" height="42" viewBox="0 0 42 42" fill="none" xmlns="http://www.w3.org/2000/svg">
<path d="M0.0820312 37.4883C0.0820312 39.976 2.10599 42 4.59375 42H37.4062C39.894 42 41.918 39.976 41.918 37.4883V32.1562H0.0820312V37.4883ZM17.7188 35.8477H24.2812C24.9608 35.8477 25.5117 36.3986 25.5117 37.0781C25.5117 37.7577 24.9608 38.3086 24.2812 38.3086H17.7188C17.0392 38.3086 16.4883 37.7577 16.4883 37.0781C16.4883 36.3986 17.0392 35.8477 17.7188 35.8477ZM37.4062 0H4.59375C2.10599 0 0.0820312 2.02396 0.0820312 4.51172V9.02344H3.1582V6.15234C3.1582 5.4728 3.70913 4.92188 4.38867 4.92188C5.06822 4.92188 5.61914 5.4728 5.61914 6.15234V9.02344H8.69531V6.15234C8.69531 5.4728 9.24623 4.92188 9.92578 4.92188C10.6053 4.92188 11.1562 5.4728 11.1562 6.15234V9.02344H14.2324V6.15234C14.2324 5.4728 14.7833 4.92188 15.4629 4.92188C16.1424 4.92188 16.6934 5.4728 16.6934 6.15234V9.02344H19.7695V6.15234C19.7695 5.4728 20.3205 4.92188 21 4.92188C21.6795 4.92188 22.2305 5.4728 22.2305 6.15234V9.02344H25.3066V6.15234C25.3066 5.4728 25.8576 4.92188 26.5371 4.92188C27.2167 4.92188 27.7676 5.4728 27.7676 6.15234V9.02344H30.8438V6.15234C30.8438 5.4728 31.3947 4.92188 32.0742 4.92188C32.7538 4.92188 33.3047 5.4728 33.3047 6.15234V9.02344H36.3809V6.15234C36.3809 5.4728 36.9318 4.92188 37.6113 4.92188C38.2909 4.92188 38.8418 5.4728 38.8418 6.15234V9.02344H41.918V4.51172C41.918 2.02396 39.894 0 37.4062 0ZM18.9359 19.159C18.7135 20.2941 18.1982 21.3714 17.4153 22.2662L17.316 22.3798C16.6765 23.1105 16.3241 24.0485 16.3242 25.0195C16.3242 27.5978 18.4218 29.6953 21 29.6953C23.5782 29.6953 25.6758 27.5978 25.6758 25.0195C25.6749 23.7784 25.3413 22.5603 24.7097 21.4919C23.9003 22.6518 22.6634 23.4808 21.2413 23.7652C20.4799 23.9174 19.7695 23.3351 19.7695 22.5586V22.097C19.7695 21.0436 19.4713 20.0291 18.9359 19.159Z" fill="#1881B0"/>
</svg>
