<svg width="25" height="24" viewBox="0 0 25 24" fill="none" xmlns="http://www.w3.org/2000/svg">
<path d="M21.5 24H12.5C12.2348 24 11.9804 23.8946 11.7929 23.7071C11.6054 23.5196 11.5 23.2652 11.5 23V21C11.5 20.7348 11.6054 20.4804 11.7929 20.2929C11.9804 20.1054 12.2348 20 12.5 20H21.5C21.7652 20 22.0196 20.1054 22.2071 20.2929C22.3946 20.4804 22.5 20.7348 22.5 21V23C22.5 23.2652 22.3946 23.5196 22.2071 23.7071C22.0196 23.8946 21.7652 24 21.5 24Z" fill="#F8C60C"/>
<path d="M21.5 0H3.5C3.23478 0 2.98043 0.105356 2.79289 0.292892C2.60536 0.480429 2.5 0.734784 2.5 1V3C2.5 3.26522 2.60536 3.51957 2.79289 3.70711C2.98043 3.89464 3.23478 4 3.5 4H21.5C21.7652 4 22.0196 3.89464 22.2071 3.70711C22.3946 3.51957 22.5 3.26522 22.5 3V1C22.5 0.734784 22.3946 0.480429 22.2071 0.292892C22.0196 0.105356 21.7652 0 21.5 0Z" fill="#2EC5CE"/>
<path d="M21.5 6H3.5C3.23478 6 2.98043 6.10536 2.79289 6.29289C2.60536 6.48043 2.5 6.73478 2.5 7V17C2.5 17.2652 2.60536 17.5196 2.79289 17.7071C2.98043 17.8946 3.23478 18 3.5 18H21.5C21.7652 18 22.0196 17.8946 22.2071 17.7071C22.3946 17.5196 22.5 17.2652 22.5 17V7C22.5 6.73478 22.3946 6.48043 22.2071 6.29289C22.0196 6.10536 21.7652 6 21.5 6Z" fill="#1881B0"/>
</svg>
