<svg width="37" height="36" viewBox="0 0 37 36" fill="none" xmlns="http://www.w3.org/2000/svg">
<path d="M12.5433 16.5501C11.8035 16.5526 11.0769 16.7454 10.4333 17.1101C11.3394 14.7646 12.8423 12.6964 14.7933 11.1101C14.9049 11.0181 14.9973 10.9051 15.0653 10.7775C15.1332 10.6498 15.1754 10.5101 15.1893 10.3661C15.2032 10.2222 15.1887 10.0769 15.1465 9.93864C15.1042 9.80033 15.0352 9.6717 14.9433 9.56007C14.8514 9.44845 14.7383 9.35602 14.6107 9.28807C14.4831 9.22013 14.3433 9.17798 14.1993 9.16406C14.0554 9.15013 13.9102 9.16468 13.7718 9.2069C13.6335 9.24911 13.5049 9.31815 13.3933 9.41007C9.39328 12.6601 7.61328 17.1601 7.61328 19.9501C7.62017 20.9366 7.91415 21.8997 8.45932 22.7219C9.00449 23.5441 9.77726 24.1898 10.6833 24.5801C11.2696 24.8641 11.9118 25.0144 12.5633 25.0201C13.1367 25.0479 13.7099 24.9591 14.248 24.7588C14.7861 24.5586 15.2779 24.2511 15.6936 23.8551C16.1093 23.4591 16.4403 22.9828 16.6664 22.4551C16.8925 21.9274 17.0091 21.3592 17.0091 20.7851C17.0091 20.2109 16.8925 19.6428 16.6664 19.1151C16.4403 18.5873 16.1093 18.111 15.6936 17.715C15.2779 17.319 14.7861 17.0116 14.248 16.8113C13.7099 16.6111 13.1367 16.5222 12.5633 16.5501H12.5433Z" fill="#1881B0"/>
<path d="M23.6839 16.55C22.9441 16.5516 22.2172 16.7445 21.5739 17.11C22.4797 14.767 23.9787 12.6995 25.9239 11.11C26.0457 11.0223 26.1482 10.9105 26.2251 10.7816C26.3021 10.6528 26.3518 10.5095 26.3714 10.3607C26.3909 10.2119 26.3797 10.0607 26.3386 9.91633C26.2975 9.77198 26.2273 9.63758 26.1323 9.52139C26.0373 9.40519 25.9195 9.30967 25.7862 9.2407C25.6529 9.17173 25.5069 9.13077 25.3572 9.12034C25.2074 9.1099 25.0572 9.13022 24.9156 9.18004C24.774 9.22986 24.6441 9.30812 24.5339 9.41002C20.5339 12.66 18.7539 17.16 18.7539 19.95C18.7586 20.9253 19.0441 21.8787 19.576 22.6962C20.108 23.5136 20.8641 24.1607 21.7539 24.56C22.3551 24.8524 23.0154 25.0029 23.6839 25C24.2574 25.0279 24.8305 24.939 25.3686 24.7388C25.9067 24.5385 26.3985 24.2311 26.8142 23.8351C27.2299 23.4391 27.5609 22.9628 27.787 22.435C28.0132 21.9073 28.1298 21.3392 28.1298 20.765C28.1298 20.1909 28.0132 19.6227 27.787 19.095C27.5609 18.5673 27.2299 18.091 26.8142 17.695C26.3985 17.299 25.9067 16.9915 25.3686 16.7913C24.8305 16.591 24.2574 16.5021 23.6839 16.53V16.55Z" fill="#1881B0"/>
</svg>
