<svg width="501" height="501" viewBox="0 0 501 501" fill="none" xmlns="http://www.w3.org/2000/svg">
<path d="M55.8397 302.807L64.4897 297.207C64.4897 297.207 68.6897 274.897 65.5697 255.207C61.1897 227.427 42.3097 217.876 35.4497 220.617C28.5897 223.357 26.9697 231.617 39.3597 247.617C46.6697 257.077 56.0697 277.067 55.8397 302.807Z" fill="#90CAF9"/>
<g opacity="0.3">
<path d="M55.8397 302.807L64.4897 297.207C64.4897 297.207 68.6897 274.897 65.5697 255.207C61.1897 227.427 42.3097 217.876 35.4497 220.617C28.5897 223.357 26.9697 231.617 39.3597 247.617C46.6697 257.077 56.0697 277.067 55.8397 302.807Z" fill="white"/>
</g>
<path d="M58.991 291.796H58.901C58.739 291.772 58.593 291.685 58.494 291.554C58.3951 291.423 58.3509 291.259 58.371 291.096C61.961 265.096 51.521 236.676 39.781 225.206C39.663 225.091 39.5957 224.934 39.5938 224.769C39.5919 224.604 39.6557 224.444 39.771 224.326C39.8864 224.208 40.0439 224.141 40.209 224.139C40.374 224.137 40.533 224.201 40.651 224.316C52.601 235.986 63.241 264.876 59.601 291.256C59.5817 291.405 59.5093 291.541 59.3972 291.641C59.2851 291.74 59.1408 291.795 58.991 291.796Z" fill="white"/>
<path d="M34.0607 316.877C32.7607 317.617 29.0607 314.767 28.0607 314.077C26.3043 312.879 24.8855 311.25 23.9407 309.347C22.8863 307.174 22.5367 304.727 22.9407 302.347C23.1487 301.091 23.4427 299.852 23.8207 298.637C24.1707 297.437 24.5107 296.237 24.8207 295.037C25.2413 293.875 25.4183 292.639 25.3407 291.407C25.0307 288.947 22.8407 287.227 20.8607 285.737C18.6607 284.097 16.3807 281.927 16.3907 278.967C16.5483 276.667 17.4665 274.486 19.0007 272.767C20.4207 270.967 22.1007 269.387 23.3807 267.487C24.3884 266.168 24.9142 264.545 24.8707 262.887C24.7329 261.873 24.3928 260.897 23.8707 260.017C22.8707 258.087 21.4507 256.317 20.7307 254.247C20.0107 252.177 20.1107 249.597 21.7307 248.117C23.0507 246.897 25.0307 246.727 26.8207 246.847C28.5032 247.052 30.1207 247.622 31.5607 248.517C36.2607 251.127 38.9507 256.697 43.9407 258.707C45.9074 259.326 47.9114 259.82 49.9407 260.187C51.9407 260.717 53.9907 261.747 54.9407 263.597C56.7707 267.257 53.3707 271.767 54.6607 275.647C55.8007 279.087 59.1407 280.397 61.0107 283.497C61.775 284.865 62.0833 286.441 61.8907 287.997C61.7274 290.625 61.0834 293.201 59.9907 295.597C58.7569 298.083 57.3709 300.491 55.8407 302.807L34.0607 316.877Z" fill="#90CAF9"/>
<g opacity="0.65">
<path d="M34.0607 316.877C32.7607 317.617 29.0607 314.767 28.0607 314.077C26.3043 312.879 24.8855 311.25 23.9407 309.347C22.8863 307.174 22.5367 304.727 22.9407 302.347C23.1487 301.091 23.4427 299.852 23.8207 298.637C24.1707 297.437 24.5107 296.237 24.8207 295.037C25.2413 293.875 25.4183 292.639 25.3407 291.407C25.0307 288.947 22.8407 287.227 20.8607 285.737C18.6607 284.097 16.3807 281.927 16.3907 278.967C16.5483 276.667 17.4665 274.486 19.0007 272.767C20.4207 270.967 22.1007 269.387 23.3807 267.487C24.3884 266.168 24.9142 264.545 24.8707 262.887C24.7329 261.873 24.3928 260.897 23.8707 260.017C22.8707 258.087 21.4507 256.317 20.7307 254.247C20.0107 252.177 20.1107 249.597 21.7307 248.117C23.0507 246.897 25.0307 246.727 26.8207 246.847C28.5032 247.052 30.1207 247.622 31.5607 248.517C36.2607 251.127 38.9507 256.697 43.9407 258.707C45.9074 259.326 47.9114 259.82 49.9407 260.187C51.9407 260.717 53.9907 261.747 54.9407 263.597C56.7707 267.257 53.3707 271.767 54.6607 275.647C55.8007 279.087 59.1407 280.397 61.0107 283.497C61.775 284.865 62.0833 286.441 61.8907 287.997C61.7274 290.625 61.0834 293.201 59.9907 295.597C58.7569 298.083 57.3709 300.491 55.8407 302.807L34.0607 316.877Z" fill="white"/>
</g>
<path d="M46.6207 309.516C46.5436 309.514 46.4678 309.496 46.3978 309.464C46.3277 309.432 46.2648 309.386 46.2126 309.329C46.1605 309.272 46.1202 309.206 46.0941 309.133C46.068 309.06 46.0567 308.983 46.0607 308.906C47.0607 285.666 36.0607 259.996 28.0607 252.546C27.9634 252.437 27.9104 252.295 27.9122 252.148C27.9139 252.001 27.9702 251.86 28.0701 251.753C28.17 251.646 28.3064 251.579 28.4525 251.567C28.5987 251.555 28.7442 251.597 28.8607 251.686C36.9807 259.296 48.1607 285.386 47.1807 308.956C47.1734 309.103 47.1121 309.241 47.0086 309.344C46.9051 309.448 46.7669 309.509 46.6207 309.516Z" fill="white"/>
<path d="M42.8401 281.106H42.6701C37.1757 279.586 31.5328 278.664 25.8401 278.356C25.763 278.354 25.6873 278.336 25.6172 278.304C25.5471 278.272 25.4842 278.226 25.432 278.169C25.3799 278.112 25.3396 278.046 25.3135 277.973C25.2874 277.901 25.2761 277.823 25.2801 277.746C25.2813 277.669 25.2982 277.593 25.3299 277.522C25.3617 277.451 25.4075 277.388 25.4645 277.335C25.5216 277.283 25.5888 277.243 25.662 277.217C25.7352 277.191 25.8128 277.181 25.8901 277.186C31.6965 277.489 37.4532 278.418 43.0601 279.956C43.2068 280.007 43.3283 280.112 43.3992 280.25C43.47 280.388 43.4847 280.548 43.4401 280.696C43.4002 280.822 43.3194 280.93 43.2107 281.005C43.102 281.079 42.9715 281.115 42.8401 281.106Z" fill="white"/>
<path d="M254.519 485.896C382.092 485.896 485.509 426.189 485.509 352.537C485.509 278.884 382.092 219.177 254.519 219.177C126.947 219.177 23.5293 278.884 23.5293 352.537C23.5293 426.189 126.947 485.896 254.519 485.896Z" fill="#FAFAFA"/>
<path d="M131.759 295.687C180.689 267.447 260.009 267.447 308.929 295.687C350.399 319.627 356.699 356.177 327.869 383.967L435.519 445.327C442.079 449.117 442.079 455.257 435.519 459.047L425.839 464.637C419.279 468.426 408.839 468.126 402.479 463.977L308.479 398.237C259.479 426.237 180.559 426.127 131.799 397.977C82.8392 369.727 82.8392 323.937 131.759 295.687Z" fill="#E6E6E6"/>
<path d="M151.59 47.3763L143.11 52.2763C143.153 51.9044 143.176 51.5306 143.18 51.1563V48.6963C143.18 44.3163 140.11 42.5463 136.32 44.6963C134.687 45.6929 133.291 47.0341 132.23 48.6263C131.6 43.1263 127.29 41.0763 122.04 44.0963C116.37 47.3763 111.78 55.3363 111.78 61.8863V65.5563C111.74 67.0273 112.038 68.4879 112.65 69.8263L105.65 73.8963C104.534 74.6199 103.607 75.5985 102.945 76.7514C102.282 77.9042 101.903 79.1982 101.84 80.5263C101.84 82.9563 103.54 83.9363 105.65 82.7263L151.65 56.1663C152.76 55.4466 153.684 54.4743 154.346 53.3288C155.009 52.1834 155.39 50.8975 155.46 49.5763C155.4 47.1463 153.7 46.1663 151.59 47.3763Z" fill="#EBEBEB"/>
<path d="M39.7393 69.4364L44.5193 65.7464V55.2064C44.5193 46.8464 51.1893 37.1464 58.4193 32.9764C65.6593 28.7964 71.5293 32.1864 71.5293 40.5364V42.0664C73.0553 39.5943 75.1372 37.5124 77.6093 35.9864C82.8193 32.9864 87.0393 35.4164 87.0393 41.4264V42.1264L93.7093 38.2764C97.1393 36.2764 99.9193 37.8964 99.9193 41.8564C99.8029 44.0118 99.1799 46.1094 98.1009 47.9789C97.0219 49.8485 95.5173 51.4373 93.7093 52.6164L39.7393 83.7764C36.3093 85.7764 33.5293 84.1464 33.5293 80.1864C33.6457 78.0323 34.2687 75.9361 35.3478 74.0682C36.4268 72.2003 37.9315 70.6133 39.7393 69.4364Z" fill="#EBEBEB"/>
<path d="M110.67 314.066V344.496C110.67 361.016 121.59 377.496 143.42 390.146C187.08 415.356 257.88 415.356 301.54 390.146C323.37 377.536 334.29 361.016 334.29 344.496V314.066C334.29 297.546 323.37 281.066 301.54 268.426C257.88 243.216 187.08 243.216 143.42 268.426C121.59 281.026 110.67 297.546 110.67 314.066ZM323.47 314.066C323.47 327.286 313.76 340.166 296.13 350.346C276.63 361.606 250.48 367.806 222.48 367.806C194.48 367.806 168.33 361.606 148.83 350.346C131.2 340.166 121.49 327.286 121.49 314.066C121.49 300.846 131.2 287.966 148.83 277.786C168.33 266.526 194.48 260.326 222.48 260.326C250.48 260.326 276.64 266.526 296.13 277.786C313.77 287.966 323.47 300.876 323.47 314.066Z" fill="#90CAF9"/>
<path opacity="0.2" d="M110.67 314.066V344.496C110.67 361.016 121.59 377.496 143.42 390.146C187.08 415.356 257.88 415.356 301.54 390.146C323.37 377.536 334.29 361.016 334.29 344.496V314.066C334.29 297.546 323.37 281.066 301.54 268.426C257.88 243.216 187.08 243.216 143.42 268.426C121.59 281.026 110.67 297.546 110.67 314.066ZM323.47 314.066C323.47 327.286 313.76 340.166 296.13 350.346C276.63 361.606 250.48 367.806 222.48 367.806C194.48 367.806 168.33 361.606 148.83 350.346C131.2 340.166 121.49 327.286 121.49 314.066C121.49 300.846 131.2 287.966 148.83 277.786C168.33 266.526 194.48 260.326 222.48 260.326C250.48 260.326 276.64 266.526 296.13 277.786C313.77 287.966 323.47 300.876 323.47 314.066Z" fill="white"/>
<path opacity="0.6" d="M334.18 347.336C332.44 357.806 327.83 365.686 309.26 380.176C283.01 400.676 216.54 409.046 177.96 396.316C141.57 384.316 129.96 360.826 129.96 344.716L130.06 335.246C124.44 328.556 121.48 321.366 121.48 314.066C121.48 306.586 124.59 299.216 130.48 292.386L130.61 279.046H128.54C116.63 289.676 110.67 301.866 110.67 314.046V344.476C110.67 360.996 121.59 377.476 143.42 390.126C187.08 415.336 257.88 415.336 301.54 390.126C322.12 378.266 333 362.876 334.18 347.336Z" fill="#90CAF9"/>
<path d="M301.55 268.426C257.88 243.216 187.09 243.216 143.43 268.426C99.7704 293.636 99.7604 334.506 143.43 359.716C187.1 384.926 257.88 384.926 301.55 359.716C345.22 334.506 345.21 293.636 301.55 268.426ZM296.14 350.346C276.64 361.606 250.48 367.806 222.49 367.806C194.5 367.806 168.34 361.606 148.83 350.346C131.2 340.166 121.49 327.286 121.49 314.066C121.49 300.846 131.2 287.966 148.83 277.786C168.33 266.526 194.49 260.326 222.49 260.326C250.49 260.326 276.64 266.526 296.14 277.786C313.77 287.966 323.48 300.856 323.48 314.066C323.48 327.276 313.77 340.166 296.14 350.346Z" fill="#90CAF9"/>
<path opacity="0.5" d="M301.55 268.426C257.88 243.216 187.09 243.216 143.43 268.426C99.7704 293.636 99.7604 334.506 143.43 359.716C187.1 384.926 257.88 384.926 301.55 359.716C345.22 334.506 345.21 293.636 301.55 268.426ZM296.14 350.346C276.64 361.606 250.48 367.806 222.49 367.806C194.5 367.806 168.34 361.606 148.83 350.346C131.2 340.166 121.49 327.286 121.49 314.066C121.49 300.846 131.2 287.966 148.83 277.786C168.33 266.526 194.49 260.326 222.49 260.326C250.49 260.326 276.64 266.526 296.14 277.786C313.77 287.966 323.48 300.856 323.48 314.066C323.48 327.276 313.77 340.166 296.14 350.346Z" fill="white"/>
<path d="M323.49 314.066C323.426 319.44 321.916 324.697 319.12 329.286C314.69 321.616 306.88 314.416 296.12 308.226C276.64 296.956 250.47 290.756 222.47 290.756C194.47 290.756 168.32 296.956 148.83 308.226C138.08 314.416 130.28 321.616 125.83 329.286C123.056 324.689 121.558 319.435 121.49 314.066C121.49 300.856 131.2 287.966 148.84 277.776C168.33 266.536 194.49 260.326 222.48 260.326C250.47 260.326 276.65 266.536 296.13 277.776C313.78 287.966 323.49 300.876 323.49 314.066Z" fill="#90CAF9"/>
<path opacity="0.3" d="M323.49 314.066C323.426 319.44 321.916 324.697 319.12 329.286C314.69 321.616 306.88 314.416 296.12 308.226C276.64 296.956 250.47 290.756 222.47 290.756C194.47 290.756 168.32 296.956 148.83 308.226C138.08 314.416 130.28 321.616 125.83 329.286C123.056 324.689 121.558 319.435 121.49 314.066C121.49 300.856 131.2 287.966 148.84 277.776C168.33 266.536 194.49 260.326 222.48 260.326C250.47 260.326 276.65 266.536 296.13 277.776C313.78 287.966 323.49 300.876 323.49 314.066Z" fill="white"/>
<path opacity="0.6" d="M148.84 277.776C131.2 287.966 121.49 300.856 121.49 314.066C121.561 319.436 123.063 324.69 125.84 329.286C130.3 321.616 138.1 314.416 148.84 308.226C153.382 305.629 158.1 303.353 162.96 301.416C158.7 303.066 145.62 307.276 150.39 294.806C156.06 279.996 183.73 263.956 204.06 261.296C183.15 263.366 163.98 269.046 148.84 277.776Z" fill="#90CAF9"/>
<path opacity="0.4" d="M296.141 291.566C276.641 280.306 250.481 274.106 222.491 274.106C194.501 274.106 168.331 280.306 148.831 291.566C134.291 299.966 125.151 310.206 122.391 320.956C125.151 331.706 134.291 341.956 148.831 350.346C168.341 361.606 194.491 367.806 222.491 367.806C250.491 367.806 276.641 361.606 296.141 350.346C310.691 341.946 319.831 331.706 322.581 320.956C319.841 310.206 310.691 299.966 296.141 291.566Z" fill="white"/>
<path d="M141.359 327.936C147.609 332.836 154.699 335.936 161.929 338.396C169.179 340.797 176.605 342.629 184.139 343.876C199.195 346.321 214.464 347.192 229.699 346.476C237.309 346.136 244.929 345.426 252.499 344.406C260.045 343.393 267.523 341.92 274.889 339.996C282.22 338.162 289.312 335.478 296.019 331.996C297.675 331.114 299.278 330.136 300.819 329.066C302.367 328.01 303.835 326.84 305.209 325.566C306.596 324.286 307.834 322.854 308.899 321.296C310.002 319.697 310.843 317.931 311.389 316.066C311.422 318.11 311.083 320.143 310.389 322.066C309.655 323.999 308.695 325.839 307.529 327.546C306.377 329.266 305.064 330.873 303.609 332.346C302.169 333.826 300.636 335.212 299.019 336.496C292.503 341.464 285.279 345.428 277.589 348.256C270.007 351.113 262.187 353.292 254.219 354.766C246.294 356.266 238.275 357.219 230.219 357.616C214.05 358.462 197.849 356.737 182.219 352.506C174.401 350.364 166.85 347.345 159.709 343.506C156.154 341.557 152.774 339.302 149.609 336.766C148.819 336.136 148.079 335.446 147.319 334.766C146.559 334.086 145.839 333.396 145.149 332.666C143.757 331.198 142.489 329.616 141.359 327.936Z" fill="white"/>
<path d="M298.221 379.086C298.355 376.367 299.13 373.718 300.482 371.355C301.834 368.991 303.725 366.981 306.001 365.486C308.141 364.236 310.091 364.106 311.511 364.906L336.431 379.156C337.841 379.966 338.721 381.716 338.731 384.156C338.594 386.875 337.818 389.524 336.466 391.887C335.115 394.249 333.225 396.26 330.951 397.756C328.791 399.016 326.831 399.146 325.411 398.326L300.501 384.086C299.121 383.346 298.231 381.596 298.221 379.086Z" fill="#37474F"/>
<path d="M300.551 384.156C299.121 383.346 298.231 381.596 298.221 379.086C298.256 377.062 298.709 375.067 299.551 373.226L335.361 393.746C334.195 395.385 332.713 396.772 331.001 397.826C328.841 399.086 326.881 399.216 325.461 398.396L300.551 384.156Z" fill="#263238"/>
<path d="M421.28 419.686L341.98 379.276L341.88 379.216C340.04 378.216 337.54 378.396 334.79 379.996C329.17 383.276 324.64 391.196 324.67 397.696C324.67 400.956 325.84 403.236 327.67 404.296L402.2 452.296C404.344 453.654 406.74 454.565 409.245 454.977C411.749 455.388 414.31 455.291 416.776 454.691C419.242 454.091 421.562 453 423.597 451.484C425.633 449.968 427.342 448.058 428.623 445.867C429.904 443.677 430.731 441.25 431.054 438.733C431.377 436.216 431.19 433.659 430.504 431.216C429.818 428.773 428.647 426.493 427.06 424.512C425.474 422.531 423.504 420.89 421.27 419.686H421.28Z" fill="#455A64"/>
<path d="M327.68 404.316L402.21 452.316C404.981 454.056 408.156 455.045 411.425 455.188C414.693 455.331 417.943 454.622 420.855 453.131C423.766 451.639 426.241 449.417 428.035 446.682C429.83 443.946 430.882 440.791 431.09 437.526C429.66 443.736 419.4 449.016 406.68 441.906C393.96 434.796 346.84 405.006 325.43 392.676C324.928 394.296 324.665 395.98 324.65 397.676C324.66 400.976 325.84 403.256 327.68 404.316Z" fill="#37474F"/>
<path d="M327.68 404.316C325.82 403.256 324.68 400.976 324.68 397.716C324.68 391.216 329.18 383.296 334.8 380.016C337.55 378.416 340.05 378.246 341.89 379.236L348.89 382.796C347 381.796 344.45 381.956 341.62 383.596C335.86 386.956 331.21 395.086 331.24 401.756C331.24 405.096 332.39 407.486 334.29 408.566" fill="#90CAF9"/>
<path opacity="0.2" d="M334.28 408.566C332.38 407.486 331.28 405.096 331.23 401.756C331.241 399.989 331.514 398.233 332.04 396.546C329.65 395.126 327.42 393.826 325.43 392.676C325.178 393.512 324.981 394.364 324.84 395.226C324.78 395.646 324.73 396.066 324.69 396.486C324.69 396.906 324.64 397.316 324.69 397.716C324.69 400.976 325.86 403.256 327.69 404.316L334.28 408.566Z" fill="black"/>
<path d="M138.05 450.636L78.0504 420.626L54.1504 431.206L138.05 450.636Z" fill="#90CAF9"/>
<g opacity="0.15">
<path d="M138.05 450.636L78.0504 420.626L54.1504 431.206L138.05 450.636Z" fill="white"/>
</g>
<path d="M138.051 450.636L85.2012 415.306L94.6612 401.706L138.051 450.636Z" fill="#90CAF9"/>
<g opacity="0.15">
<path d="M138.051 450.636L85.2012 415.306L94.6612 401.706L138.051 450.636Z" fill="white"/>
</g>
<path d="M85.2012 415.306L86.1912 424.696L138.051 450.636L85.2012 415.306Z" fill="#90CAF9"/>
<g opacity="0.2">
<path d="M85.2012 415.306L86.1912 424.696L138.051 450.636L85.2012 415.306Z" fill="black"/>
</g>
<path d="M76.6398 413.506C76.7851 413.503 76.9239 413.446 77.0298 413.346C77.1522 413.226 77.226 413.064 77.237 412.893C77.2481 412.721 77.1957 412.552 77.0898 412.416L75.9398 410.876C75.8932 410.812 75.8332 410.757 75.7639 410.718C75.6946 410.678 75.6175 410.653 75.538 410.646C75.4584 410.638 75.3781 410.648 75.3025 410.674C75.227 410.7 75.1578 410.742 75.0998 410.796C74.9778 410.917 74.9035 411.077 74.8907 411.248C74.8778 411.419 74.9272 411.589 75.0298 411.726C75.4098 412.236 75.7998 412.726 76.1898 413.236C76.2389 413.313 76.305 413.377 76.3831 413.424C76.4612 413.471 76.549 413.499 76.6398 413.506Z" fill="#455A64"/>
<path d="M71.3701 406.686C70.6567 405.646 69.9667 404.596 69.3001 403.536C69.2099 403.391 69.1754 403.217 69.2029 403.048C69.2305 402.879 69.3183 402.726 69.4501 402.616C69.5123 402.567 69.5844 402.532 69.6616 402.513C69.7387 402.494 69.819 402.492 69.8969 402.508C69.9748 402.523 70.0485 402.555 70.1129 402.601C70.1773 402.647 70.2309 402.707 70.2701 402.776C70.9401 403.826 71.6201 404.866 72.2701 405.896C72.368 406.037 72.41 406.209 72.3878 406.379C72.3656 406.55 72.2808 406.705 72.1501 406.816C72.053 406.901 71.9286 406.947 71.8001 406.946C71.7137 406.937 71.6303 406.909 71.556 406.864C71.4817 406.819 71.4182 406.759 71.3701 406.686ZM66.0801 398.096C65.4701 396.986 64.8701 395.856 64.3001 394.726C64.2217 394.574 64.2019 394.399 64.2443 394.233C64.2866 394.067 64.3883 393.922 64.5301 393.826C64.5989 393.784 64.6761 393.757 64.7563 393.747C64.8365 393.737 64.9179 393.745 64.9949 393.77C65.0718 393.795 65.1425 393.836 65.2021 393.89C65.2617 393.945 65.3088 394.012 65.3401 394.086C65.9001 395.196 66.4901 396.306 67.0901 397.406C67.1752 397.555 67.2029 397.73 67.1679 397.897C67.1329 398.065 67.0376 398.214 66.9001 398.316C66.8067 398.374 66.6996 398.405 66.5901 398.406C66.4852 398.405 66.3826 398.375 66.293 398.321C66.2033 398.266 66.1298 398.189 66.0801 398.096ZM61.6201 388.936C61.1201 387.746 60.6201 386.546 60.2001 385.356C60.1387 385.199 60.1374 385.024 60.1964 384.865C60.2554 384.707 60.3706 384.576 60.5201 384.496C60.5945 384.465 60.6748 384.449 60.7557 384.45C60.8366 384.452 60.9163 384.47 60.9898 384.504C61.0632 384.537 61.1288 384.586 61.1822 384.647C61.2357 384.708 61.2758 384.779 61.3001 384.856C61.7301 386.026 62.2001 387.206 62.7001 388.376C62.7673 388.533 62.7749 388.709 62.7215 388.871C62.6681 389.033 62.5573 389.17 62.4101 389.256C62.3324 389.295 62.2469 389.316 62.1601 389.316C62.0427 389.313 61.9291 389.275 61.8331 389.207C61.7371 389.14 61.663 389.046 61.6201 388.936ZM58.1601 379.256C57.8001 378.006 57.4601 376.736 57.1601 375.506C57.1123 375.343 57.1293 375.168 57.2075 375.017C57.2858 374.866 57.4192 374.751 57.5801 374.696C57.6583 374.676 57.74 374.671 57.82 374.684C57.9 374.696 57.9766 374.725 58.045 374.768C58.1135 374.811 58.1724 374.868 58.218 374.934C58.2636 375.001 58.2949 375.077 58.3101 375.156C58.6001 376.376 58.9301 377.616 59.3101 378.846C59.361 379.007 59.3503 379.181 59.28 379.335C59.2098 379.488 59.0851 379.61 58.9301 379.676H58.7501C58.6197 379.679 58.4922 379.639 58.386 379.563C58.2798 379.488 58.2006 379.38 58.1601 379.256ZM55.8401 369.146C55.6401 367.876 55.4601 366.576 55.3101 365.286C55.2808 365.121 55.3179 364.95 55.4133 364.812C55.5088 364.673 55.6549 364.578 55.8201 364.546C55.984 364.535 56.1458 364.589 56.271 364.695C56.3962 364.802 56.4748 364.953 56.4901 365.116C56.6301 366.386 56.8101 367.666 57.0101 368.916C57.0437 369.079 57.0138 369.249 56.9264 369.39C56.839 369.531 56.7007 369.634 56.5401 369.676H56.4301C56.2859 369.669 56.1486 369.612 56.0412 369.516C55.9338 369.419 55.8628 369.289 55.8401 369.146ZM54.8401 358.786C54.8401 357.786 54.7801 356.786 54.7801 355.716V354.876C54.776 354.795 54.7881 354.713 54.8156 354.637C54.8431 354.56 54.8854 354.489 54.9402 354.429C54.995 354.369 55.0612 354.32 55.135 354.285C55.2087 354.25 55.2886 354.23 55.3701 354.226C55.5355 354.239 55.6892 354.317 55.7978 354.442C55.9064 354.568 55.9611 354.731 55.9501 354.896V355.716C55.9501 356.716 55.9501 357.716 55.9501 358.716C55.9641 358.883 55.9123 359.049 55.8057 359.178C55.6992 359.306 55.5464 359.389 55.3801 359.406C55.2299 359.387 55.092 359.313 54.9925 359.199C54.893 359.084 54.8388 358.938 54.8401 358.786ZM55.6301 349.096C55.4664 349.067 55.3202 348.976 55.2216 348.842C55.123 348.708 55.0795 348.541 55.1001 348.376C55.2101 347.086 55.3501 345.776 55.5101 344.486C55.5161 344.405 55.5389 344.325 55.5769 344.252C55.6149 344.18 55.6674 344.116 55.7311 344.064C55.7948 344.013 55.8684 343.975 55.9473 343.953C56.0263 343.931 56.1089 343.925 56.1901 343.936C56.3534 343.97 56.4971 344.066 56.5905 344.205C56.6839 344.343 56.7196 344.512 56.6901 344.676C56.5301 345.946 56.3901 347.236 56.2801 348.496C56.273 348.651 56.2088 348.799 56.0999 348.909C55.991 349.02 55.8451 349.087 55.6901 349.096H55.6301ZM57.0301 338.876C56.8699 338.825 56.7353 338.715 56.6535 338.569C56.5717 338.422 56.5491 338.249 56.5901 338.086C56.8501 336.816 57.1501 335.546 57.4801 334.296C57.495 334.217 57.5264 334.142 57.5721 334.075C57.6178 334.009 57.6769 333.952 57.7457 333.91C57.8144 333.868 57.8912 333.84 57.9711 333.829C58.0511 333.818 58.1325 333.824 58.2101 333.846C58.3684 333.907 58.4982 334.025 58.574 334.177C58.6499 334.329 58.6663 334.503 58.6201 334.666C58.3001 335.886 58.0001 337.146 57.7401 338.386C57.7192 338.524 57.6509 338.651 57.5469 338.744C57.4428 338.837 57.3096 338.891 57.1701 338.896L57.0301 338.876ZM59.7301 328.986C59.5779 328.912 59.4594 328.784 59.3982 328.626C59.337 328.468 59.3376 328.294 59.4001 328.136C59.8301 326.936 60.3101 325.726 60.8101 324.546C60.8383 324.471 60.8818 324.403 60.9377 324.346C60.9936 324.289 61.0608 324.243 61.135 324.213C61.2092 324.183 61.2888 324.169 61.3689 324.171C61.4489 324.173 61.5276 324.192 61.6001 324.226C61.7458 324.314 61.8552 324.451 61.9084 324.613C61.9616 324.774 61.9551 324.949 61.8901 325.106C61.3901 326.266 60.8901 327.446 60.5001 328.626C60.4626 328.743 60.3894 328.846 60.2908 328.919C60.1922 328.993 60.073 329.034 59.9501 329.036C59.8736 329.039 59.7978 329.022 59.7301 328.986ZM63.8401 319.696C63.6992 319.597 63.5999 319.449 63.5611 319.281C63.5224 319.114 63.5469 318.937 63.6301 318.786C64.2401 317.676 64.8801 316.566 65.5301 315.496C65.5685 315.425 65.6218 315.364 65.6862 315.315C65.7507 315.267 65.8249 315.233 65.9037 315.216C65.9826 315.199 66.0641 315.199 66.1429 315.216C66.2216 315.234 66.2957 315.268 66.3601 315.316C66.4917 315.426 66.5801 315.578 66.6094 315.747C66.6387 315.915 66.6071 316.089 66.5201 316.236C65.8701 317.286 65.2401 318.376 64.6501 319.466C64.6025 319.561 64.5298 319.641 64.4398 319.698C64.3499 319.754 64.2462 319.785 64.1401 319.786C64.0334 319.786 63.9292 319.755 63.8401 319.696ZM69.1501 311.206C69.0288 311.088 68.9549 310.929 68.942 310.76C68.9292 310.59 68.9782 310.422 69.0801 310.286C69.8301 309.286 70.6201 308.286 71.4101 307.346C71.4617 307.285 71.526 307.236 71.5985 307.203C71.6711 307.169 71.7501 307.151 71.8301 307.151C71.91 307.151 71.989 307.169 72.0616 307.203C72.1341 307.236 72.1984 307.285 72.2501 307.346C72.3639 307.474 72.4268 307.64 72.4268 307.811C72.4268 307.983 72.3639 308.148 72.2501 308.276C71.4701 309.206 70.7001 310.166 69.9601 311.156C69.9078 311.23 69.8389 311.29 69.759 311.332C69.679 311.373 69.5903 311.396 69.5001 311.396C69.4237 311.395 69.3486 311.377 69.2797 311.344C69.2107 311.311 69.1495 311.264 69.1001 311.206H69.1501ZM75.5801 303.726C75.4662 303.598 75.4033 303.433 75.4033 303.261C75.4033 303.09 75.4662 302.924 75.5801 302.796C76.4601 301.926 77.3701 301.076 78.2801 300.276C78.3401 300.223 78.4109 300.183 78.4877 300.159C78.5645 300.136 78.6455 300.129 78.7252 300.139C78.8049 300.15 78.8814 300.177 78.9495 300.22C79.0177 300.262 79.0758 300.319 79.1201 300.386C79.2169 300.528 79.26 300.699 79.2416 300.87C79.2233 301.04 79.1447 301.199 79.0201 301.316C78.1201 302.096 77.2301 302.926 76.3601 303.776C76.2575 303.882 76.1174 303.943 75.9701 303.946C75.8849 303.945 75.8012 303.924 75.7251 303.886C75.649 303.848 75.5823 303.794 75.5301 303.726H75.5801ZM82.9401 297.396C82.858 297.248 82.831 297.075 82.864 296.908C82.8969 296.742 82.9876 296.592 83.1201 296.486C84.1201 295.766 85.1201 295.096 86.1201 294.486C86.1885 294.446 86.2649 294.42 86.344 294.411C86.4231 294.403 86.5032 294.411 86.5789 294.435C86.6546 294.46 86.7242 294.5 86.783 294.554C86.8418 294.608 86.8886 294.673 86.9201 294.746C86.9978 294.897 87.0173 295.071 86.9748 295.235C86.9324 295.399 86.831 295.542 86.6901 295.636C85.6901 296.236 84.6901 296.896 83.6901 297.636C83.5964 297.702 83.4845 297.737 83.3701 297.736C83.2679 297.725 83.1703 297.687 83.0864 297.628C83.0024 297.569 82.9349 297.489 82.8901 297.396H82.9401Z" fill="#455A64"/>
<path d="M91.7396 293.076H91.9196C92.4478 292.876 92.9935 292.726 93.5496 292.626C93.7137 292.59 93.8575 292.492 93.9507 292.352C94.0439 292.212 94.0794 292.042 94.0496 291.876C94.0433 291.795 94.0209 291.716 93.9836 291.644C93.9464 291.572 93.895 291.507 93.8326 291.455C93.7701 291.403 93.6979 291.364 93.6201 291.34C93.5423 291.316 93.4605 291.308 93.3796 291.316C92.7601 291.432 92.1513 291.599 91.5596 291.816C91.4012 291.879 91.2728 292 91.2003 292.154C91.1279 292.308 91.1169 292.484 91.1696 292.646C91.2074 292.769 91.2828 292.876 91.3851 292.953C91.4874 293.031 91.6114 293.074 91.7396 293.076Z" fill="#455A64"/>
<path d="M372.541 63.0265L311.041 44.1765L358.421 76.7265L372.541 63.0265Z" fill="#90CAF9"/>
<path opacity="0.15" d="M372.541 63.0265L311.041 44.1765L358.421 76.7265L372.541 63.0265Z" fill="white"/>
<path d="M311.041 44.1765L377.231 54.8265L391.351 41.1265L311.041 44.1765Z" fill="#90CAF9"/>
<path opacity="0.15" d="M311.041 44.1765L377.231 54.8265L391.351 41.1265L311.041 44.1765Z" fill="white"/>
<path d="M377.231 54.8265L377.291 71.1865L372.541 63.0265L311.041 44.1765L377.231 54.8265Z" fill="#90CAF9"/>
<path opacity="0.2" d="M377.231 54.8265L377.291 71.1865L372.541 63.0265L311.041 44.1765L377.231 54.8265Z" fill="black"/>
<path d="M377.29 71.1864L367.83 67.5964L372.54 63.0264L377.29 71.1864Z" fill="#90CAF9"/>
<path opacity="0.2" d="M372.54 63.0264L367.83 67.5964L369.34 68.1664L372.54 63.0264Z" fill="black"/>
<path d="M389.702 60.1465C389.644 60.1892 389.596 60.2431 389.56 60.305C389.524 60.3669 389.5 60.4354 389.492 60.5065C389.471 60.6772 389.512 60.8497 389.607 60.9927C389.703 61.1358 389.846 61.24 390.012 61.2865L391.832 61.7765C391.908 61.8005 391.989 61.8076 392.068 61.7972C392.147 61.7868 392.224 61.7593 392.291 61.7164C392.359 61.6736 392.416 61.6165 392.459 61.5491C392.503 61.4818 392.531 61.4058 392.542 61.3265C392.565 61.1582 392.528 60.9868 392.436 60.8437C392.345 60.7006 392.205 60.5951 392.042 60.5465L390.202 60.0565C390.117 60.0318 390.028 60.0271 389.941 60.0427C389.854 60.0583 389.772 60.0939 389.702 60.1465Z" fill="#455A64"/>
<path d="M398.031 62.3766C399.221 62.7766 400.411 63.1966 401.581 63.6266C401.741 63.6873 401.875 63.8032 401.957 63.9535C402.04 64.1039 402.066 64.2787 402.031 64.4466C402.01 64.5239 401.973 64.596 401.922 64.6577C401.871 64.7195 401.807 64.7697 401.735 64.8047C401.663 64.8398 401.585 64.859 401.504 64.8611C401.424 64.8631 401.345 64.8479 401.271 64.8166C400.111 64.3866 398.931 63.9766 397.751 63.5766C397.59 63.5217 397.455 63.4103 397.371 63.2631C397.286 63.1159 397.258 62.943 397.291 62.7766C397.314 62.6482 397.386 62.5337 397.491 62.4566C397.567 62.3991 397.656 62.3617 397.751 62.3477C397.845 62.3337 397.941 62.3437 398.031 62.3766ZM407.441 65.9966C408.611 66.5166 409.761 66.9966 410.901 67.6066C411.055 67.6788 411.178 67.8055 411.244 67.9625C411.311 68.1194 411.317 68.2954 411.261 68.4566C411.231 68.5312 411.186 68.5986 411.128 68.6545C411.07 68.7104 411.002 68.7534 410.926 68.7808C410.85 68.8082 410.77 68.8193 410.69 68.8134C410.61 68.8075 410.532 68.7847 410.461 68.7466C409.341 68.1966 408.201 67.6666 407.051 67.1666C406.896 67.0964 406.772 66.973 406.7 66.8189C406.629 66.6648 406.615 66.4901 406.661 66.3266C406.694 66.2186 406.761 66.124 406.851 66.0566C406.935 65.9944 407.034 65.956 407.138 65.9455C407.242 65.9349 407.346 65.9525 407.441 65.9966ZM416.541 70.5866C417.661 71.2266 418.761 71.8966 419.841 72.5866C419.985 72.6758 420.091 72.8141 420.141 72.9759C420.191 73.1377 420.18 73.312 420.111 73.4666C420.071 73.5373 420.017 73.599 419.952 73.6475C419.887 73.696 419.812 73.7304 419.733 73.7483C419.654 73.7662 419.572 73.7673 419.492 73.7515C419.413 73.7357 419.337 73.7033 419.271 73.6566C418.211 72.9866 417.121 72.3366 416.021 71.6566C415.873 71.5739 415.76 71.4394 415.705 71.2789C415.649 71.1184 415.655 70.9431 415.721 70.7866C415.754 70.7032 415.809 70.6306 415.881 70.5766C415.98 70.5135 416.095 70.4809 416.212 70.4826C416.33 70.4844 416.444 70.5205 416.541 70.5866ZM425.161 76.1966C426.211 76.9666 427.241 77.7666 428.231 78.5666C428.365 78.6699 428.455 78.8201 428.483 78.9871C428.511 79.154 428.474 79.3253 428.381 79.4666C428.332 79.5313 428.269 79.5849 428.198 79.624C428.127 79.6631 428.048 79.6867 427.967 79.6933C427.885 79.6999 427.804 79.6893 427.727 79.6623C427.65 79.6353 427.58 79.5925 427.521 79.5366C426.521 78.7466 425.521 77.9666 424.521 77.2066C424.381 77.1091 424.282 76.9624 424.245 76.7956C424.208 76.6289 424.235 76.4543 424.321 76.3066C424.35 76.2542 424.391 76.2096 424.441 76.1766C424.548 76.1045 424.675 76.0677 424.804 76.0713C424.933 76.0749 425.058 76.1187 425.161 76.1966ZM433.111 82.8766C434.051 83.7666 434.981 84.6866 435.881 85.6266C435.997 85.7476 436.062 85.9088 436.062 86.0766C436.062 86.2443 435.997 86.4055 435.881 86.5266C435.823 86.5846 435.755 86.6307 435.679 86.6621C435.604 86.6936 435.523 86.7097 435.441 86.7097C435.359 86.7097 435.278 86.6936 435.203 86.6621C435.127 86.6307 435.059 86.5846 435.001 86.5266C434.121 85.6066 433.201 84.6966 432.281 83.8266C432.156 83.7148 432.078 83.5596 432.063 83.3924C432.048 83.2252 432.097 83.0586 432.201 82.9266L432.281 82.8466C432.399 82.748 432.548 82.6965 432.702 82.702C432.855 82.7076 433.001 82.7698 433.111 82.8766ZM440.201 90.4966C440.851 91.2866 441.481 92.0866 442.111 92.9066L442.611 93.5766C442.716 93.7044 442.766 93.8683 442.751 94.0329C442.736 94.1976 442.657 94.3497 442.531 94.4566C442.463 94.5034 442.386 94.5362 442.305 94.5531C442.225 94.5699 442.141 94.5704 442.06 94.5546C441.979 94.5387 441.902 94.5069 441.834 94.4608C441.765 94.4148 441.706 94.3556 441.661 94.2866L441.161 93.6266C440.551 92.8266 439.931 92.0366 439.291 91.2566C439.176 91.1372 439.111 90.9776 439.111 90.8116C439.111 90.6455 439.176 90.4859 439.291 90.3666C439.355 90.3092 439.43 90.2657 439.512 90.239C439.594 90.2123 439.68 90.2028 439.766 90.2113C439.851 90.2197 439.934 90.2459 440.009 90.2881C440.084 90.3304 440.149 90.3877 440.201 90.4566V90.4966ZM445.451 98.6966C445.598 98.6192 445.769 98.6009 445.929 98.6455C446.089 98.6902 446.225 98.7943 446.311 98.9366C447.001 100.037 447.681 101.157 448.311 102.287C448.355 102.355 448.384 102.432 448.398 102.512C448.411 102.592 448.409 102.674 448.39 102.754C448.371 102.833 448.337 102.908 448.289 102.973C448.241 103.039 448.181 103.095 448.111 103.137C447.959 103.204 447.787 103.212 447.629 103.158C447.471 103.105 447.34 102.993 447.261 102.847C446.621 101.737 445.951 100.627 445.261 99.5566C445.172 99.4295 445.134 99.2738 445.155 99.1202C445.175 98.9666 445.252 98.8261 445.371 98.7266L445.451 98.6966ZM450.521 107.697C450.681 107.639 450.856 107.644 451.012 107.711C451.168 107.778 451.293 107.901 451.361 108.057C451.911 109.227 452.451 110.417 452.941 111.607C452.976 111.68 452.995 111.759 452.998 111.84C453.001 111.921 452.988 112.002 452.959 112.078C452.93 112.153 452.886 112.223 452.83 112.281C452.773 112.339 452.706 112.385 452.631 112.417C452.468 112.463 452.293 112.446 452.141 112.371C451.99 112.295 451.872 112.165 451.811 112.007C451.331 110.837 450.811 109.667 450.261 108.527C450.192 108.403 450.169 108.258 450.197 108.119C450.224 107.98 450.3 107.855 450.411 107.767C450.437 107.712 450.474 107.665 450.521 107.627V107.697ZM454.371 117.197C454.537 117.165 454.71 117.197 454.854 117.286C454.998 117.374 455.104 117.514 455.151 117.677C455.531 118.897 455.891 120.147 456.201 121.387C456.225 121.463 456.232 121.545 456.223 121.624C456.213 121.704 456.187 121.781 456.145 121.85C456.103 121.919 456.048 121.979 455.982 122.025C455.915 122.071 455.84 122.102 455.761 122.117C455.594 122.138 455.424 122.097 455.286 122.001C455.147 121.905 455.049 121.761 455.011 121.597C454.701 120.377 454.351 119.147 454.011 117.957C453.969 117.841 453.963 117.716 453.996 117.598C454.028 117.48 454.096 117.374 454.191 117.297C454.236 117.226 454.298 117.168 454.371 117.127V117.197ZM456.771 127.047C456.942 127.042 457.109 127.101 457.24 127.212C457.371 127.322 457.457 127.477 457.481 127.647C457.681 128.897 457.841 130.167 457.971 131.427C457.981 131.505 457.974 131.584 457.951 131.66C457.928 131.736 457.889 131.805 457.837 131.865C457.785 131.924 457.721 131.972 457.65 132.005C457.578 132.038 457.5 132.056 457.421 132.057C457.25 132.055 457.085 131.989 456.959 131.873C456.834 131.756 456.756 131.597 456.741 131.427C456.611 130.197 456.461 128.957 456.261 127.727C456.243 127.623 456.253 127.516 456.29 127.418C456.327 127.32 456.389 127.233 456.471 127.167C456.548 127.072 456.653 127.006 456.771 126.977V127.047Z" fill="#455A64"/>
<path d="M467.72 286.706C465.04 285.106 461.26 285.326 457.06 287.706L380.9 331.706C372.77 336.396 366.17 347.556 366.17 356.626C366.17 361.056 367.75 364.156 370.31 365.626L378.48 370.336C381.15 371.856 384.88 371.616 389.02 369.226L465.19 325.226C473.32 320.536 479.91 309.376 479.91 300.306C479.91 295.906 478.35 292.796 475.81 291.306C474.42 290.546 469.06 287.506 467.72 286.706Z" fill="#E0E0E0"/>
<path d="M382.261 370.876C377.661 370.876 374.801 367.236 374.801 361.386C374.801 352.496 381.291 341.506 389.271 336.906L465.441 292.906C467.402 291.69 469.645 291.001 471.951 290.906C476.551 290.906 479.411 294.546 479.411 300.396C479.411 309.296 472.921 320.276 464.941 324.886L388.771 368.886C386.811 370.104 384.567 370.79 382.261 370.876Z" fill="#FAFAFA"/>
<path d="M471.951 291.366C476.241 291.366 478.951 294.816 478.951 300.366C478.951 309.106 472.571 319.896 464.731 324.366L388.561 368.366C386.676 369.542 384.52 370.211 382.301 370.306C381.351 370.338 380.406 370.152 379.539 369.762C378.673 369.372 377.907 368.789 377.301 368.056C375.88 366.106 375.174 363.726 375.301 361.316C375.301 352.586 381.681 341.796 389.521 337.316L465.691 293.316C467.575 292.14 469.732 291.472 471.951 291.376M471.951 290.376C469.554 290.467 467.224 291.184 465.191 292.456L389.021 336.456C380.891 341.156 374.301 352.306 374.301 361.376C374.301 367.726 377.531 371.376 382.301 371.376C384.695 371.284 387.025 370.57 389.061 369.306L465.231 325.306C473.361 320.616 479.951 309.456 479.951 300.386C479.951 294.036 476.721 290.386 471.951 290.386V290.376Z" fill="#EBEBEB"/>
<path d="M400.961 346.236C401.271 345.656 401.221 345.056 400.961 344.896L398.411 343.426C398.357 343.398 398.297 343.384 398.236 343.384C398.175 343.384 398.115 343.398 398.061 343.426L395.721 344.327L394.951 342.687C394.913 342.606 394.85 342.539 394.771 342.497L392.221 341.017C391.901 340.837 391.371 341.246 391.161 341.926L389.571 347.137C389.484 347.45 389.303 347.73 389.051 347.937L385.501 350.687C384.931 351.117 384.711 352.177 385.121 352.467L387.691 354.327C387.78 354.418 387.844 354.529 387.879 354.651C387.914 354.774 387.918 354.902 387.891 355.027L387.281 360.097C387.231 360.467 387.341 360.717 387.511 360.807L390.061 362.287C390.261 362.397 390.561 362.286 390.831 361.956L394.011 357.896C394.078 357.785 394.171 357.693 394.283 357.628C394.395 357.564 394.522 357.529 394.651 357.527L397.841 357.877C398.341 357.947 398.931 357.027 398.841 356.337L398.231 351.967C398.203 351.643 398.273 351.32 398.431 351.037L400.961 346.236Z" fill="#90CAF9"/>
<path opacity="0.15" d="M400.931 344.877C400.876 344.852 400.817 344.839 400.756 344.839C400.696 344.839 400.636 344.852 400.581 344.877L397.021 346.237C396.975 346.26 396.925 346.273 396.873 346.275C396.822 346.277 396.77 346.268 396.722 346.25C396.674 346.231 396.631 346.202 396.594 346.165C396.558 346.129 396.53 346.085 396.511 346.037L395.691 344.297L398.031 343.407C398.086 343.379 398.146 343.365 398.206 343.365C398.267 343.365 398.327 343.379 398.381 343.407L400.931 344.877Z" fill="white"/>
<path opacity="0.15" d="M392.09 348.597C392.001 348.91 391.82 349.188 391.57 349.397L388.02 352.137C387.856 352.264 387.726 352.429 387.64 352.617L385.09 351.137C385.181 350.952 385.311 350.788 385.47 350.657L389.02 347.917C389.269 347.712 389.451 347.437 389.54 347.127L392.09 348.597Z" fill="white"/>
<path opacity="0.1" d="M394.761 342.486C394.441 342.276 393.901 342.687 393.681 343.387L392.091 348.597L389.541 347.116L391.131 341.907C391.341 341.227 391.871 340.817 392.191 340.997C392.261 340.997 394.421 342.297 394.751 342.477L394.761 342.486Z" fill="black"/>
<path opacity="0.25" d="M390.211 355.786L387.681 354.327L385.111 352.466C384.811 352.246 384.851 351.646 385.111 351.156L387.661 352.637C387.401 353.117 387.361 353.727 387.661 353.947L390.211 355.786Z" fill="black"/>
<path opacity="0.15" d="M389.84 361.557C389.84 361.927 389.9 362.177 390.09 362.277L387.53 360.797C387.429 360.712 387.355 360.6 387.316 360.474C387.277 360.348 387.275 360.214 387.31 360.087L387.92 355.017C387.945 354.897 387.942 354.773 387.911 354.655C387.88 354.537 387.821 354.428 387.74 354.337L390.27 355.797C390.352 355.886 390.411 355.993 390.442 356.11C390.473 356.226 390.476 356.349 390.45 356.467L389.84 361.557Z" fill="black"/>
<path d="M394.921 342.667L396.511 346.047C396.53 346.095 396.558 346.139 396.594 346.175C396.63 346.212 396.674 346.241 396.722 346.259C396.77 346.278 396.821 346.287 396.873 346.285C396.925 346.282 396.975 346.269 397.021 346.247L400.581 344.887C401.141 344.667 401.371 345.467 400.961 346.237L398.391 351.057C398.233 351.34 398.163 351.663 398.191 351.987L398.801 356.357C398.891 357.047 398.301 357.967 397.801 357.897L394.621 357.507C394.492 357.509 394.365 357.544 394.253 357.608C394.141 357.673 394.048 357.765 393.981 357.877L390.841 361.937C390.331 362.587 389.741 362.357 389.841 361.547L390.451 356.477C390.48 356.352 390.477 356.223 390.442 356.101C390.407 355.978 390.341 355.867 390.251 355.777L387.681 353.927C387.271 353.627 387.501 352.577 388.061 352.137L391.611 349.397C391.863 349.19 392.045 348.91 392.131 348.597L393.721 343.387C393.931 342.557 394.661 342.137 394.921 342.667Z" fill="#90CAF9"/>
<path opacity="0.5" d="M394.921 342.667L396.511 346.047C396.53 346.095 396.558 346.139 396.594 346.175C396.63 346.212 396.674 346.241 396.722 346.259C396.77 346.278 396.821 346.287 396.873 346.285C396.925 346.282 396.975 346.269 397.021 346.247L400.581 344.887C401.141 344.667 401.371 345.467 400.961 346.237L398.391 351.057C398.233 351.34 398.163 351.663 398.191 351.987L398.801 356.357C398.891 357.047 398.301 357.967 397.801 357.897L394.621 357.507C394.492 357.509 394.365 357.544 394.253 357.608C394.141 357.673 394.048 357.765 393.981 357.877L390.841 361.937C390.331 362.587 389.741 362.357 389.841 361.547L390.451 356.477C390.48 356.352 390.477 356.223 390.442 356.101C390.407 355.978 390.341 355.867 390.251 355.777L387.681 353.927C387.271 353.627 387.501 352.577 388.061 352.137L391.611 349.397C391.863 349.19 392.045 348.91 392.131 348.597L393.721 343.387C393.931 342.557 394.661 342.137 394.921 342.667Z" fill="white"/>
<path d="M418.84 335.937C419.15 335.357 419.09 334.767 418.84 334.607L416.3 333.137C416.244 333.109 416.183 333.094 416.12 333.094C416.058 333.094 415.996 333.109 415.94 333.137L413.61 334.037L412.83 332.397C412.799 332.315 412.738 332.247 412.66 332.207L410.11 330.727C409.79 330.547 409.26 330.957 409.05 331.637L407.39 336.877C407.3 337.189 407.119 337.467 406.87 337.677L403.32 340.417C402.75 340.857 402.53 341.917 402.93 342.207L405.51 344.067C405.599 344.158 405.662 344.27 405.696 344.392C405.729 344.515 405.73 344.644 405.7 344.767L405.1 349.837C405.05 350.207 405.15 350.457 405.32 350.547L407.84 351.977C408.04 352.087 408.33 351.977 408.61 351.647L411.79 347.587C411.857 347.476 411.95 347.383 412.062 347.319C412.174 347.254 412.301 347.219 412.43 347.217L415.61 347.607C416.11 347.667 416.7 346.757 416.61 346.067L416.01 341.697C415.978 341.373 416.048 341.048 416.21 340.767L418.84 335.937Z" fill="#90CAF9"/>
<path opacity="0.15" d="M418.78 334.597C418.725 334.572 418.665 334.559 418.605 334.559C418.544 334.559 418.485 334.572 418.43 334.597L414.84 335.957C414.793 335.98 414.742 335.993 414.689 335.995C414.637 335.997 414.585 335.989 414.536 335.97C414.487 335.951 414.443 335.923 414.406 335.886C414.368 335.849 414.339 335.805 414.32 335.757L413.51 334.017L415.84 333.127C415.896 333.099 415.957 333.085 416.02 333.085C416.082 333.085 416.144 333.099 416.2 333.127L418.78 334.597Z" fill="white"/>
<path opacity="0.15" d="M409.94 338.307C409.851 338.619 409.669 338.898 409.42 339.107L405.84 341.877C405.676 342.004 405.546 342.169 405.46 342.357L402.93 340.877C403.028 340.694 403.161 340.531 403.32 340.397L406.87 337.657C407.118 337.447 407.299 337.169 407.39 336.857L409.94 338.307Z" fill="white"/>
<path opacity="0.1" d="M412.611 332.197C412.291 331.987 411.751 332.397 411.531 333.097L409.941 338.306L407.391 336.877L408.981 331.667C409.191 330.987 409.721 330.577 410.041 330.757C410.111 330.757 412.271 332.057 412.591 332.227L412.611 332.197Z" fill="black"/>
<path opacity="0.25" d="M408.061 345.486L405.531 344.036L402.961 342.176C402.671 341.956 402.711 341.356 402.961 340.866L405.521 342.346C405.261 342.826 405.221 343.436 405.521 343.646L408.061 345.486Z" fill="black"/>
<path opacity="0.15" d="M407.65 351.257C407.6 351.637 407.71 351.887 407.89 351.987L405.34 350.507C405.17 350.407 405.07 350.167 405.12 349.797L405.73 344.727C405.753 344.607 405.749 344.484 405.718 344.366C405.687 344.248 405.63 344.139 405.55 344.047L408.08 345.497C408.162 345.586 408.221 345.693 408.252 345.81C408.284 345.926 408.287 346.049 408.26 346.167L407.65 351.257Z" fill="black"/>
<path d="M412.761 332.377L414.351 335.757C414.37 335.805 414.399 335.849 414.436 335.886C414.474 335.923 414.518 335.951 414.567 335.97C414.616 335.989 414.668 335.997 414.72 335.995C414.772 335.993 414.824 335.98 414.871 335.957L418.431 334.597C418.991 334.377 419.221 335.177 418.811 335.937L416.241 340.767C416.078 341.048 416.008 341.373 416.041 341.697L416.641 346.067C416.741 346.757 416.151 347.667 415.641 347.607L412.461 347.217C412.331 347.219 412.204 347.254 412.093 347.319C411.981 347.383 411.887 347.476 411.821 347.587L408.641 351.647C408.131 352.297 407.541 352.067 407.641 351.257L408.251 346.187C408.278 346.063 408.273 345.934 408.238 345.812C408.204 345.689 408.139 345.578 408.051 345.487L405.481 343.637C405.071 343.337 405.291 342.287 405.861 341.847L409.411 339.107C409.662 338.9 409.844 338.621 409.931 338.307L411.521 333.097C411.781 332.267 412.511 331.877 412.761 332.377Z" fill="#90CAF9"/>
<path opacity="0.5" d="M412.761 332.377L414.351 335.757C414.37 335.805 414.399 335.849 414.436 335.886C414.474 335.923 414.518 335.951 414.567 335.97C414.616 335.989 414.668 335.997 414.72 335.995C414.772 335.993 414.824 335.98 414.871 335.957L418.431 334.597C418.991 334.377 419.221 335.177 418.811 335.937L416.241 340.767C416.078 341.048 416.008 341.373 416.041 341.697L416.641 346.067C416.741 346.757 416.151 347.667 415.641 347.607L412.461 347.217C412.331 347.219 412.204 347.254 412.093 347.319C411.981 347.383 411.887 347.476 411.821 347.587L408.641 351.647C408.131 352.297 407.541 352.067 407.641 351.257L408.251 346.187C408.278 346.063 408.273 345.934 408.238 345.812C408.204 345.689 408.139 345.578 408.051 345.487L405.481 343.637C405.071 343.337 405.291 342.287 405.861 341.847L409.411 339.107C409.662 338.9 409.844 338.621 409.931 338.307L411.521 333.097C411.781 332.267 412.511 331.877 412.761 332.377Z" fill="white"/>
<path d="M436.661 325.647C436.961 325.067 436.911 324.477 436.661 324.317L434.081 322.877C434.024 322.851 433.963 322.838 433.901 322.838C433.839 322.838 433.777 322.851 433.721 322.877L431.381 323.777L430.611 322.137C430.579 322.055 430.519 321.987 430.441 321.947L427.891 320.467C427.571 320.287 427.031 320.697 426.831 321.377L425.241 326.587C425.15 326.899 424.969 327.177 424.721 327.387L421.161 330.127C420.601 330.567 420.371 331.617 420.781 331.917L423.351 333.777C423.443 333.865 423.511 333.977 423.546 334.1C423.581 334.223 423.583 334.353 423.551 334.477L422.941 339.547C422.941 339.917 423.001 340.157 423.171 340.257L425.721 341.737C425.931 341.847 426.221 341.737 426.501 341.407L429.671 337.347C429.738 337.234 429.833 337.141 429.947 337.076C430.061 337.011 430.19 336.977 430.321 336.977L433.491 337.367C434.001 337.427 434.591 336.517 434.491 335.827L433.891 331.457C433.859 331.135 433.925 330.811 434.081 330.527L436.661 325.647Z" fill="#90CAF9"/>
<path opacity="0.15" d="M436.631 324.307C436.574 324.282 436.513 324.269 436.451 324.269C436.389 324.269 436.328 324.282 436.271 324.307L432.721 325.667C432.674 325.69 432.623 325.703 432.57 325.705C432.518 325.707 432.466 325.699 432.417 325.68C432.368 325.661 432.324 325.633 432.287 325.596C432.25 325.559 432.22 325.515 432.201 325.467L431.381 323.727L433.721 322.837C433.775 322.809 433.835 322.795 433.896 322.795C433.957 322.795 434.017 322.809 434.071 322.837L436.631 324.307Z" fill="white"/>
<path opacity="0.15" d="M427.84 328.007C427.749 328.322 427.569 328.603 427.32 328.817L423.77 331.557C423.606 331.686 423.473 331.85 423.38 332.037L420.83 330.557C420.929 330.373 421.061 330.211 421.22 330.077L424.77 327.337C425.018 327.127 425.199 326.849 425.29 326.537L427.84 328.007Z" fill="white"/>
<path opacity="0.1" d="M430.461 321.877C430.141 321.667 429.591 322.077 429.381 322.767L427.841 328.007L425.291 326.537L426.881 321.327C427.091 320.647 427.621 320.237 427.941 320.417C428.011 320.417 430.161 321.717 430.491 321.887L430.461 321.877Z" fill="black"/>
<path opacity="0.25" d="M425.901 335.197L423.381 333.747L420.781 331.877C420.491 331.657 420.521 331.057 420.781 330.567L423.331 332.047C423.081 332.527 423.041 333.137 423.331 333.347L425.901 335.197Z" fill="black"/>
<path opacity="0.15" d="M425.5 340.967C425.45 341.347 425.56 341.597 425.74 341.697L423.19 340.217C423.02 340.117 422.92 339.877 422.96 339.507L423.57 334.427C423.596 334.309 423.594 334.188 423.564 334.071C423.535 333.955 423.479 333.847 423.4 333.757L425.92 335.207C425.998 335.298 426.055 335.405 426.086 335.521C426.118 335.637 426.122 335.759 426.1 335.877L425.5 340.967Z" fill="black"/>
<path d="M430.611 322.087L432.201 325.467C432.22 325.515 432.249 325.559 432.287 325.596C432.324 325.633 432.368 325.661 432.417 325.68C432.466 325.699 432.518 325.707 432.57 325.705C432.623 325.703 432.674 325.69 432.721 325.667L436.271 324.307C436.841 324.087 437.061 324.887 436.661 325.647L434.081 330.477C433.925 330.761 433.859 331.085 433.891 331.407L434.491 335.777C434.591 336.467 434.001 337.377 433.491 337.317L430.321 336.927C430.19 336.927 430.061 336.961 429.947 337.026C429.833 337.091 429.738 337.184 429.671 337.297L426.501 341.357C425.991 342.007 425.401 341.777 425.501 340.967L426.101 335.897C426.131 335.773 426.129 335.645 426.096 335.522C426.063 335.4 425.999 335.288 425.911 335.197L423.331 333.337C422.931 333.047 423.151 331.987 423.721 331.557L427.271 328.817C427.519 328.607 427.7 328.329 427.791 328.017L429.381 322.807C429.631 321.977 430.361 321.557 430.611 322.087Z" fill="#90CAF9"/>
<path opacity="0.5" d="M430.611 322.087L432.201 325.467C432.22 325.515 432.249 325.559 432.287 325.596C432.324 325.633 432.368 325.661 432.417 325.68C432.466 325.699 432.518 325.707 432.57 325.705C432.623 325.703 432.674 325.69 432.721 325.667L436.271 324.307C436.841 324.087 437.061 324.887 436.661 325.647L434.081 330.477C433.925 330.761 433.859 331.085 433.891 331.407L434.491 335.777C434.591 336.467 434.001 337.377 433.491 337.317L430.321 336.927C430.19 336.927 430.061 336.961 429.947 337.026C429.833 337.091 429.738 337.184 429.671 337.297L426.501 341.357C425.991 342.007 425.401 341.777 425.501 340.967L426.101 335.897C426.131 335.773 426.129 335.645 426.096 335.522C426.063 335.4 425.999 335.288 425.911 335.197L423.331 333.337C422.931 333.047 423.151 331.987 423.721 331.557L427.271 328.817C427.519 328.607 427.7 328.329 427.791 328.017L429.381 322.807C429.631 321.977 430.361 321.557 430.611 322.087Z" fill="white"/>
<path d="M454.5 315.357C454.81 314.777 454.76 314.187 454.5 314.027L451.96 312.547C451.903 312.521 451.842 312.508 451.78 312.508C451.718 312.508 451.656 312.521 451.6 312.547L449.26 313.447L448.49 311.807C448.456 311.724 448.396 311.653 448.32 311.607C448 311.437 445.84 310.177 445.77 310.137C445.45 309.957 444.91 310.367 444.7 311.047L443.11 316.257C443.023 316.568 442.845 316.846 442.6 317.057L439.04 319.797C438.48 320.237 438.25 321.287 438.66 321.587L441.23 323.447C441.321 323.534 441.387 323.644 441.422 323.765C441.457 323.886 441.46 324.014 441.43 324.137L440.82 329.207C440.82 329.577 440.88 329.827 441.05 329.927L443.6 331.407C443.8 331.517 444.1 331.407 444.37 331.077L447.55 327.017C447.616 326.906 447.71 326.813 447.822 326.749C447.934 326.684 448.06 326.649 448.19 326.647L451.37 327.037C451.88 327.097 452.47 326.187 452.37 325.497L451.76 321.127C451.736 320.804 451.805 320.481 451.96 320.197L454.5 315.357Z" fill="#90CAF9"/>
<path opacity="0.15" d="M454.47 314.017C454.416 313.991 454.356 313.978 454.295 313.978C454.235 313.978 454.175 313.991 454.12 314.017L450.56 315.377C450.514 315.4 450.464 315.412 450.412 315.415C450.361 315.417 450.309 315.408 450.261 315.389C450.213 315.371 450.17 315.342 450.133 315.305C450.097 315.269 450.069 315.225 450.05 315.177L449.23 313.437L451.57 312.547C451.624 312.517 451.684 312.501 451.745 312.501C451.807 312.501 451.867 312.517 451.92 312.547L454.47 314.017Z" fill="white"/>
<path opacity="0.15" d="M445.641 317.717C445.55 318.032 445.369 318.313 445.121 318.527L441.571 321.267C441.407 321.396 441.274 321.56 441.181 321.747L438.631 320.267C438.726 320.084 438.855 319.921 439.011 319.787L442.561 317.047C442.816 316.841 443.001 316.561 443.091 316.247L445.641 317.717Z" fill="white"/>
<path opacity="0.1" d="M448.31 311.617C447.99 311.407 447.44 311.817 447.23 312.507L445.64 317.717L443.09 316.247L444.68 311.037C444.88 310.357 445.42 309.947 445.74 310.127C445.81 310.127 447.96 311.427 448.29 311.597L448.31 311.617Z" fill="black"/>
<path opacity="0.25" d="M443.751 324.877L441.231 323.427L438.661 321.567C438.361 321.347 438.401 320.747 438.661 320.257L441.211 321.737C440.951 322.217 440.921 322.827 441.211 323.037L443.751 324.877Z" fill="black"/>
<path opacity="0.15" d="M443.34 330.676C443.34 331.056 443.41 331.306 443.59 331.406L441.02 329.876C440.85 329.776 440.75 329.537 440.79 329.167L441.4 324.086C441.424 323.969 441.421 323.848 441.391 323.732C441.362 323.616 441.307 323.508 441.23 323.417L443.75 324.866C443.829 324.957 443.885 325.065 443.914 325.181C443.944 325.298 443.946 325.419 443.92 325.536L443.34 330.676Z" fill="black"/>
<path d="M448.461 311.797L450.051 315.177C450.071 315.225 450.1 315.269 450.137 315.306C450.174 315.343 450.219 315.371 450.268 315.39C450.316 315.409 450.369 315.417 450.421 315.415C450.473 315.413 450.524 315.4 450.571 315.377L454.121 314.017C454.691 313.797 454.911 314.597 454.501 315.357L451.931 320.187C451.777 320.471 451.708 320.794 451.731 321.117L452.341 325.487C452.441 326.177 451.851 327.087 451.341 327.027L448.161 326.637C448.032 326.639 447.905 326.674 447.793 326.739C447.681 326.803 447.588 326.896 447.521 327.007L444.341 331.067C443.841 331.717 443.251 331.487 443.341 330.677L443.951 325.607C443.983 325.483 443.981 325.353 443.946 325.23C443.911 325.107 443.844 324.995 443.751 324.907L441.181 323.047C440.771 322.757 441.001 321.697 441.561 321.267L445.121 318.527C445.368 318.316 445.548 318.038 445.641 317.727L447.231 312.507C447.481 311.687 448.211 311.267 448.461 311.797Z" fill="#90CAF9"/>
<path opacity="0.5" d="M448.461 311.797L450.051 315.177C450.071 315.225 450.1 315.269 450.137 315.306C450.174 315.343 450.219 315.371 450.268 315.39C450.316 315.409 450.369 315.417 450.421 315.415C450.473 315.413 450.524 315.4 450.571 315.377L454.121 314.017C454.691 313.797 454.911 314.597 454.501 315.357L451.931 320.187C451.777 320.471 451.708 320.794 451.731 321.117L452.341 325.487C452.441 326.177 451.851 327.087 451.341 327.027L448.161 326.637C448.032 326.639 447.905 326.674 447.793 326.739C447.681 326.803 447.588 326.896 447.521 327.007L444.341 331.067C443.841 331.717 443.251 331.487 443.341 330.677L443.951 325.607C443.983 325.483 443.981 325.353 443.946 325.23C443.911 325.107 443.844 324.995 443.751 324.907L441.181 323.047C440.771 322.757 441.001 321.697 441.561 321.267L445.121 318.527C445.368 318.316 445.548 318.038 445.641 317.727L447.231 312.507C447.481 311.687 448.211 311.267 448.461 311.797Z" fill="white"/>
<path d="M472.351 305.067C472.661 304.487 472.611 303.897 472.351 303.727L469.801 302.257C469.746 302.231 469.686 302.218 469.626 302.218C469.566 302.218 469.506 302.231 469.451 302.257L467.111 303.157L466.341 301.517C466.3 301.438 466.242 301.369 466.171 301.317C465.841 301.147 463.681 299.887 463.621 299.847C463.291 299.667 462.761 300.067 462.551 300.757L460.961 305.967C460.874 306.28 460.693 306.56 460.441 306.767L456.841 309.497C456.271 309.937 456.051 310.987 456.461 311.287L459.031 313.146C459.122 313.234 459.188 313.344 459.223 313.465C459.258 313.586 459.261 313.714 459.231 313.837L458.641 318.877C458.641 319.247 458.701 319.497 458.871 319.597L461.421 321.077C461.621 321.187 461.921 321.077 462.191 320.747L465.371 316.687C465.437 316.575 465.531 316.483 465.643 316.418C465.755 316.354 465.882 316.319 466.011 316.317L469.191 316.706C469.691 316.766 470.281 315.857 470.191 315.167L469.581 310.797C469.552 310.473 469.622 310.149 469.781 309.866L472.351 305.067Z" fill="#90CAF9"/>
<path opacity="0.15" d="M472.32 303.727C472.266 303.699 472.206 303.685 472.145 303.685C472.084 303.685 472.024 303.699 471.97 303.727L468.41 305.087C468.364 305.109 468.313 305.122 468.262 305.125C468.21 305.127 468.159 305.118 468.111 305.099C468.063 305.081 468.019 305.052 467.983 305.015C467.947 304.979 467.918 304.935 467.9 304.887L467.08 303.147L469.42 302.247C469.474 302.218 469.534 302.204 469.595 302.204C469.656 302.204 469.716 302.218 469.77 302.247L472.32 303.727Z" fill="white"/>
<path opacity="0.15" d="M463.49 307.427C463.397 307.742 463.212 308.024 462.96 308.237L459.41 310.977C459.25 311.107 459.12 311.27 459.03 311.457L456.48 309.977C456.572 309.792 456.701 309.628 456.86 309.497L460.41 306.757C460.662 306.55 460.844 306.27 460.93 305.957L463.49 307.427Z" fill="white"/>
<path opacity="0.1" d="M466.16 301.317C465.84 301.117 465.29 301.527 465.08 302.217L463.49 307.427L460.93 305.957L462.52 300.747C462.73 300.067 463.27 299.657 463.59 299.837C463.66 299.837 465.81 301.137 466.14 301.307L466.16 301.317Z" fill="black"/>
<path opacity="0.25" d="M461.601 314.617L459.071 313.167L456.501 311.307C456.201 311.087 456.241 310.487 456.501 309.997L459.051 311.477C458.791 311.957 458.751 312.567 459.051 312.777L461.601 314.617Z" fill="black"/>
<path opacity="0.15" d="M461.19 320.387C461.19 320.767 461.25 321.017 461.44 321.107L458.84 319.626C458.67 319.526 458.57 319.286 458.61 318.906L459.22 313.836C459.245 313.719 459.241 313.596 459.21 313.48C459.179 313.364 459.121 313.256 459.04 313.167L461.57 314.616C461.65 314.707 461.706 314.815 461.736 314.931C461.765 315.048 461.767 315.169 461.74 315.286L461.19 320.387Z" fill="black"/>
<path d="M466.311 301.507L467.901 304.887C467.92 304.935 467.95 304.979 467.987 305.016C468.024 305.053 468.068 305.081 468.117 305.1C468.166 305.119 468.218 305.127 468.27 305.125C468.323 305.123 468.374 305.11 468.421 305.087L471.971 303.727C472.531 303.507 472.761 304.307 472.351 305.067L469.781 309.877C469.622 310.159 469.552 310.483 469.581 310.807L470.191 315.177C470.281 315.867 469.691 316.777 469.191 316.717L466.011 316.327C465.882 316.329 465.755 316.364 465.643 316.428C465.531 316.493 465.437 316.586 465.371 316.697L462.191 320.757C461.691 321.407 461.101 321.167 461.191 320.367L461.801 315.297C461.83 315.172 461.826 315.043 461.791 314.921C461.756 314.798 461.691 314.687 461.601 314.597L459.031 312.737C458.621 312.447 458.851 311.387 459.411 310.957L462.971 308.217C463.212 308.003 463.389 307.726 463.481 307.417L465.071 302.197C465.331 301.397 466.061 300.967 466.311 301.507Z" fill="#90CAF9"/>
<path opacity="0.5" d="M466.311 301.507L467.901 304.887C467.92 304.935 467.95 304.979 467.987 305.016C468.024 305.053 468.068 305.081 468.117 305.1C468.166 305.119 468.218 305.127 468.27 305.125C468.323 305.123 468.374 305.11 468.421 305.087L471.971 303.727C472.531 303.507 472.761 304.307 472.351 305.067L469.781 309.877C469.622 310.159 469.552 310.483 469.581 310.807L470.191 315.177C470.281 315.867 469.691 316.777 469.191 316.717L466.011 316.327C465.882 316.329 465.755 316.364 465.643 316.428C465.531 316.493 465.437 316.586 465.371 316.697L462.191 320.757C461.691 321.407 461.101 321.167 461.191 320.367L461.801 315.297C461.83 315.172 461.826 315.043 461.791 314.921C461.756 314.798 461.691 314.687 461.601 314.597L459.031 312.737C458.621 312.447 458.851 311.387 459.411 310.957L462.971 308.217C463.212 308.003 463.389 307.726 463.481 307.417L465.071 302.197C465.331 301.397 466.061 300.967 466.311 301.507Z" fill="white"/>
<path d="M479.161 57.8765L471.161 61.3065L469.451 69.8365C469.402 70.0709 469.289 70.287 469.124 70.4607C468.959 70.6344 468.749 70.7588 468.518 70.82C468.287 70.8813 468.043 70.8769 467.814 70.8074C467.584 70.7379 467.379 70.606 467.221 70.4265L461.491 63.8765L452.841 64.8765C452.593 64.9141 452.34 64.878 452.112 64.773C451.885 64.6679 451.693 64.4984 451.561 64.2854C451.429 64.0725 451.363 63.8255 451.37 63.5751C451.377 63.3246 451.457 63.0817 451.601 62.8765L456.051 55.4065L452.431 47.4965C452.343 47.2841 452.313 47.0519 452.346 46.8243C452.379 46.5967 452.472 46.3821 452.616 46.203C452.761 46.024 452.951 45.8871 453.166 45.8068C453.381 45.7264 453.615 45.7056 453.841 45.7465L462.321 47.6765L468.721 41.7865C468.897 41.6222 469.115 41.5107 469.351 41.4649C469.587 41.419 469.832 41.4407 470.056 41.5273C470.281 41.6139 470.476 41.7621 470.62 41.9547C470.764 42.1474 470.851 42.3768 470.871 42.6165L471.661 51.2765L479.241 55.5365C479.464 55.6445 479.651 55.815 479.779 56.0274C479.908 56.2397 479.971 56.4847 479.963 56.7326C479.954 56.9805 479.874 57.2205 479.732 57.4236C479.589 57.6267 479.391 57.7841 479.161 57.8765Z" fill="#E0E0E0"/>
<path d="M435.069 43.0565C434.999 43.1488 434.914 43.2297 434.819 43.2965C434.65 43.4186 434.449 43.4908 434.241 43.505C434.032 43.5191 433.824 43.4746 433.639 43.3765L429.189 41.0365L424.729 43.3765C424.545 43.4746 424.336 43.5191 424.128 43.505C423.919 43.4908 423.719 43.4186 423.549 43.2965C423.378 43.1751 423.245 43.0067 423.167 42.8115C423.089 42.6163 423.069 42.4028 423.109 42.1965L423.959 37.1965L420.349 33.6865C420.199 33.5408 420.093 33.3554 420.043 33.1519C419.994 32.9484 420.003 32.7351 420.069 32.5365C420.132 32.3375 420.25 32.1604 420.409 32.0259C420.568 31.8913 420.763 31.8048 420.969 31.7765L425.969 31.0565L428.199 26.5365C428.291 26.3498 428.434 26.1927 428.61 26.0831C428.787 25.9735 428.991 25.9158 429.199 25.9165C429.407 25.9181 429.61 25.9767 429.786 26.0861C429.963 26.1955 430.106 26.3513 430.199 26.5365L432.429 31.0565L437.429 31.7765C437.636 31.8067 437.83 31.8941 437.99 32.0289C438.149 32.1636 438.268 32.3403 438.333 32.5389C438.397 32.7376 438.405 32.9503 438.355 33.1531C438.305 33.3559 438.199 33.5407 438.049 33.6865L434.439 37.1965L435.299 42.1965C435.338 42.5022 435.255 42.8109 435.069 43.0565ZM420.839 32.6665L420.779 32.7965C420.754 32.8712 420.752 32.9514 420.771 33.0277C420.791 33.1039 420.832 33.173 420.889 33.2265L424.749 36.9965L423.839 42.3165C423.827 42.3948 423.837 42.475 423.867 42.5482C423.897 42.6214 423.947 42.6848 424.011 42.7314C424.076 42.7779 424.151 42.8059 424.23 42.8121C424.309 42.8183 424.389 42.8025 424.459 42.7665L429.239 40.2565L434.009 42.7665C434.078 42.806 434.155 42.8268 434.234 42.8268C434.313 42.8268 434.391 42.806 434.459 42.7665C434.526 42.721 434.577 42.6568 434.608 42.5821C434.638 42.5074 434.645 42.4255 434.629 42.3465L433.719 37.0265L437.579 33.2565C437.635 33.2016 437.675 33.1326 437.694 33.0568C437.713 32.981 437.712 32.9014 437.689 32.8265C437.667 32.7505 437.623 32.6826 437.562 32.6311C437.502 32.5796 437.428 32.5468 437.349 32.5365L431.999 31.7565L429.559 26.8765C429.526 26.8039 429.473 26.7424 429.405 26.6998C429.338 26.6572 429.259 26.6352 429.179 26.6365C429.107 26.6445 429.038 26.6707 428.978 26.7126C428.919 26.7546 428.871 26.811 428.839 26.8765L426.459 31.7165L421.109 32.4965C421.002 32.5183 420.906 32.5788 420.839 32.6665Z" fill="#E0E0E0"/>
<path d="M379.379 109.876C371.849 105.516 361.499 106.106 350.059 112.706C327.059 126.006 308.369 158.576 308.369 185.466C308.369 198.996 313.109 208.466 320.739 212.896C322.509 213.896 329.429 217.896 329.429 217.896C329.105 220.94 328.054 223.86 326.364 226.412C324.674 228.963 322.395 231.071 319.719 232.556C319.279 232.806 319.549 233.236 319.939 233.456L330.509 239.566C330.652 239.651 330.813 239.699 330.979 239.706C341.389 239.706 353.439 232.706 356.799 218.166C358.059 217.566 359.329 216.916 360.619 216.166C383.619 202.876 402.309 170.296 402.309 143.416C402.309 129.876 397.579 120.416 389.949 115.956L379.379 109.876Z" fill="#37474F"/>
<path d="M360.62 118.806C337.62 132.096 318.93 164.676 318.93 191.556C318.93 209.806 327.52 220.726 340.24 221.726C339.76 227.526 338.07 234.046 330.24 238.656C329.62 239.026 330.43 239.716 330.95 239.716C341.36 239.716 353.41 232.716 356.77 218.176C358.03 217.576 359.3 216.926 360.59 216.176C383.59 202.886 402.28 170.306 402.28 143.426C402.28 116.546 383.64 105.516 360.62 118.806Z" fill="#455A64"/>
<path d="M330.269 238.656C329.889 238.896 330.059 239.246 330.379 239.486L319.939 233.486C319.549 233.246 319.279 232.836 319.719 232.576C322.4 231.088 324.683 228.974 326.373 226.415C328.064 223.856 329.112 220.927 329.429 217.876L330.579 218.556L331.639 219.176C334.288 220.633 337.223 221.493 340.239 221.696C339.769 227.526 338.069 234.046 330.269 238.656Z" fill="#263238"/>
<path d="M356.219 195.766C355.109 194.976 354.549 193.556 354.549 191.506C354.573 189.371 355.137 187.276 356.189 185.416C357.144 183.558 358.598 182.003 360.389 180.926C362.089 179.946 363.485 179.83 364.579 180.576C365.669 181.316 366.219 182.716 366.219 184.766C366.186 186.94 365.612 189.071 364.549 190.966C363.617 192.844 362.175 194.421 360.389 195.516C358.729 196.466 357.339 196.556 356.219 195.766ZM354.729 141.406L366.039 134.876L364.149 172.996L356.619 177.346L354.729 141.406Z" fill="#FAFAFA"/>
<path opacity="0.2" d="M366.18 212.526C378.46 203.526 389.05 189.256 395.53 173.936C383.25 182.946 372.66 197.206 366.18 212.526Z" fill="black"/>
<path d="M444.698 264.626C440.438 264.676 437.269 261.696 435.279 257.946C448.039 242.256 456.668 221.356 456.668 203.076C456.668 189.526 451.918 180.006 444.268 175.606L433.719 169.526C426.189 165.176 415.848 165.776 404.418 172.366C381.418 185.666 362.729 218.236 362.729 245.126C362.729 258.656 367.459 268.126 375.089 272.576C376.869 273.576 383.878 277.636 385.608 278.646C393.148 283.036 403.519 282.456 414.979 275.836C418.047 274.05 420.961 272.01 423.689 269.736C431.429 275.866 440.868 269.186 444.608 265.986C445.108 265.566 445.168 264.626 444.698 264.626Z" fill="#E0E0E0"/>
<path d="M396.529 280.876C382.589 280.876 373.939 269.526 373.939 251.266C373.939 224.626 392.499 192.266 415.299 179.076C421.679 175.396 427.779 173.526 433.429 173.526C447.359 173.526 456.019 184.866 456.019 203.136C456.019 220.606 447.879 241.476 434.779 257.586L434.509 257.926L434.709 258.306C437.059 262.736 440.469 265.216 444.329 265.306C444.302 265.39 444.254 265.466 444.189 265.526C441.529 267.806 436.249 271.616 430.779 271.616C428.344 271.627 425.979 270.793 424.089 269.256L423.679 268.936L423.269 269.266C420.567 271.501 417.684 273.508 414.649 275.266C408.279 278.956 402.179 280.876 396.529 280.876Z" fill="#FAFAFA"/>
<path d="M433.428 172.876V174.176C446.958 174.176 455.368 185.276 455.368 203.126C455.368 220.466 447.288 241.176 434.278 257.176L433.728 257.846L434.138 258.606C436.298 262.686 439.338 265.196 442.828 265.826C440.058 268.036 435.468 270.986 430.778 270.986C428.488 270.997 426.264 270.212 424.488 268.766L423.668 268.116L422.858 268.786C420.184 271.017 417.331 273.024 414.328 274.786C408.048 278.406 402.058 280.246 396.528 280.246C382.998 280.246 374.588 269.146 374.588 251.246C374.588 224.816 392.998 192.686 415.588 179.616C421.868 175.996 427.858 174.156 433.388 174.156V172.876M433.388 172.876C427.828 172.876 421.568 174.686 414.938 178.516C391.938 191.806 373.248 224.376 373.248 251.266C373.248 270.416 382.718 281.526 396.488 281.526C402.048 281.526 408.308 279.716 414.938 275.886C418.007 274.1 420.92 272.06 423.648 269.786C425.648 271.42 428.156 272.304 430.738 272.286C436.458 272.286 441.928 268.286 444.568 266.036C445.068 265.616 445.128 264.676 444.658 264.676H444.558C440.358 264.676 437.218 261.726 435.238 257.996C447.998 242.306 456.628 221.406 456.628 203.126C456.628 183.976 447.158 172.876 433.388 172.876Z" fill="#90CAF9"/>
<path d="M412.838 231.726C414.051 228.816 415.444 225.984 417.008 223.246C418.086 221.367 419.067 219.435 419.948 217.456C420.555 216.099 420.878 214.633 420.898 213.146C420.898 211.146 420.298 209.916 419.098 209.436C417.898 208.956 416.318 209.306 414.328 210.436C412.36 211.591 410.638 213.12 409.258 214.936C407.717 216.949 406.459 219.162 405.518 221.516L398.168 220.006C399.812 215.663 402.142 211.612 405.068 208.006C407.931 204.468 411.423 201.488 415.368 199.216C420.035 196.55 423.771 195.716 426.578 196.716C429.385 197.716 430.791 200.576 430.798 205.296C430.811 207.427 430.535 209.55 429.978 211.606C429.485 213.469 428.815 215.281 427.978 217.016C427.188 218.636 426.158 220.566 424.908 222.806C423.696 224.873 422.601 227.007 421.628 229.196C420.957 230.777 420.617 232.479 420.628 234.196L411.458 239.496C411.421 236.842 411.889 234.205 412.838 231.726ZM411.838 257.456C410.728 256.666 410.168 255.246 410.168 253.186C410.192 251.05 410.756 248.955 411.808 247.096C412.763 245.241 414.213 243.687 415.998 242.606C417.708 241.606 419.098 241.506 420.198 242.256C421.298 243.006 421.838 244.406 421.838 246.456C421.804 248.626 421.23 250.754 420.168 252.646C419.236 254.526 417.79 256.104 415.998 257.196C414.388 258.156 413.008 258.236 411.888 257.456H411.838Z" fill="#455A64"/>
<path d="M201.621 186.177L155.621 212.817L173.891 243.876C174.243 244.715 174.857 245.416 175.641 245.876C177.821 247.106 190.731 254.586 191.441 254.996C191.995 255.316 192.614 255.506 193.251 255.552C193.889 255.598 194.529 255.499 195.122 255.262C195.716 255.026 196.249 254.657 196.68 254.185C197.111 253.713 197.429 253.149 197.611 252.536L217.451 195.357L201.621 186.177Z" fill="#90CAF9"/>
<path opacity="0.2" d="M201.621 186.177L155.621 212.817L173.891 243.876C174.243 244.715 174.857 245.416 175.641 245.876C177.821 247.106 190.731 254.586 191.441 254.996C191.995 255.316 192.614 255.506 193.251 255.552C193.889 255.598 194.529 255.499 195.122 255.262C195.716 255.026 196.249 254.657 196.68 254.185C197.111 253.713 197.429 253.149 197.611 252.536L217.451 195.357L201.621 186.177Z" fill="black"/>
<path d="M171.451 221.957L189.721 253.017C190.07 253.806 190.653 254.468 191.391 254.915C192.13 255.361 192.987 255.571 193.848 255.514C194.709 255.457 195.531 255.137 196.204 254.598C196.878 254.058 197.369 253.325 197.611 252.497L217.451 195.317L171.451 221.957Z" fill="#90CAF9"/>
<path d="M252.941 26.8765L79.4707 127.006C78.3077 127.76 77.3392 128.778 76.6441 129.977C75.949 131.176 75.547 132.523 75.4707 133.906V254.296C75.5444 255.676 75.9457 257.017 76.6413 258.21C77.3369 259.403 78.3068 260.413 79.4707 261.156L93.7407 269.156C94.9817 269.781 96.3515 270.106 97.7407 270.106C99.1299 270.106 100.5 269.781 101.741 269.156L275.221 168.966C276.382 168.211 277.349 167.193 278.044 165.994C278.739 164.795 279.142 163.45 279.221 162.066V41.6765C279.146 40.2977 278.745 38.9564 278.049 37.7635C277.354 36.5706 276.384 35.5605 275.221 34.8165L260.961 26.8165C259.712 26.1997 258.336 25.8839 256.944 25.8943C255.551 25.9047 254.18 26.2411 252.941 26.8765Z" fill="#90CAF9"/>
<path opacity="0.3" d="M279.15 40.9464C278.83 38.9464 277.2 38.2264 275.21 39.3664L101.75 139.526C100.569 140.265 99.5999 141.299 98.9405 142.526L76.7305 129.876C77.397 128.722 78.3382 127.75 79.4705 127.046L252.95 26.8764C254.192 26.2543 255.562 25.9304 256.95 25.9304C258.339 25.9304 259.709 26.2543 260.95 26.8764L275.21 34.8764C276.26 35.5505 277.155 36.4405 277.834 37.4871C278.513 38.5337 278.962 39.7129 279.15 40.9464Z" fill="white"/>
<path d="M97.7598 267.276V146.876C97.836 145.494 98.2381 144.149 98.9333 142.952C99.6285 141.754 100.597 140.738 101.76 139.986L275.22 39.8764C277.41 38.6064 279.22 39.6364 279.22 42.1764V162.526C279.141 163.91 278.738 165.255 278.043 166.454C277.348 167.652 276.381 168.671 275.22 169.426L101.74 269.576C99.5398 270.876 97.7598 269.816 97.7598 267.276Z" fill="#90CAF9"/>
<path opacity="0.2" d="M101.74 269.116C100.495 269.725 99.1268 270.042 97.7405 270.042C96.3541 270.042 94.986 269.725 93.7405 269.116L79.4805 261.116C78.3176 260.377 77.348 259.37 76.6523 258.181C75.9566 256.991 75.5548 255.653 75.4805 254.276V133.876C75.5515 132.456 75.989 131.078 76.7505 129.876L98.9405 142.506C98.209 143.683 97.8019 145.032 97.7605 146.416V266.806C97.7605 269.136 99.4005 270.476 101.74 269.116Z" fill="black"/>
<path d="M146.43 170.877L144.7 169.877C144.038 169.498 143.288 169.298 142.525 169.298C141.762 169.298 141.012 169.498 140.35 169.877L129.78 175.977V161.537L149.35 150.247C150.266 149.706 151.025 148.935 151.551 148.011C152.077 147.086 152.353 146.04 152.35 144.977V136.877C152.353 135.813 152.077 134.767 151.551 133.842C151.025 132.918 150.266 132.147 149.35 131.607C148.424 131.071 147.374 130.789 146.305 130.789C145.236 130.789 144.185 131.071 143.26 131.607L116.12 147.277C114.513 148.203 113.179 149.537 112.252 151.143C111.325 152.749 110.838 154.572 110.84 156.427V231.617C110.835 232.682 111.11 233.73 111.636 234.656C112.162 235.583 112.922 236.355 113.84 236.897C114.766 237.43 115.816 237.711 116.885 237.711C117.954 237.711 119.004 237.43 119.93 236.897L126.7 232.997C127.618 232.455 128.377 231.683 128.904 230.756C129.43 229.83 129.705 228.782 129.7 227.717V198.217L146.36 188.597C147.02 188.213 147.568 187.663 147.949 187.001C148.329 186.34 148.53 185.59 148.53 184.827V174.667C148.544 173.906 148.357 173.155 147.988 172.49C147.619 171.825 147.082 171.268 146.43 170.877Z" fill="#E0E0E0"/>
<path opacity="0.1" d="M120.55 236.536L119.97 236.876C119.044 237.409 117.994 237.688 116.926 237.688C115.858 237.687 114.809 237.406 113.883 236.872C112.958 236.339 112.189 235.571 111.653 234.647C111.117 233.723 110.833 232.674 110.83 231.606V156.416C110.833 154.67 111.269 152.952 112.1 151.416L118.19 154.926C117.356 156.461 116.919 158.18 116.92 159.926V234.416C116.922 234.841 117.034 235.257 117.246 235.625C117.459 235.993 117.763 236.299 118.13 236.513C118.496 236.727 118.912 236.842 119.337 236.846C119.761 236.85 120.179 236.743 120.55 236.536Z" fill="black"/>
<path d="M129.781 161.536V183.016L146.411 173.426C146.633 173.296 146.887 173.226 147.145 173.225C147.403 173.224 147.657 173.291 147.881 173.421C148.104 173.55 148.29 173.736 148.418 173.96C148.546 174.184 148.613 174.438 148.611 174.696V184.876C148.61 185.636 148.411 186.382 148.031 187.04C147.652 187.698 147.107 188.245 146.451 188.626L129.781 198.246V227.736C129.785 228.799 129.51 229.844 128.983 230.767C128.457 231.69 127.697 232.459 126.781 232.996L120.621 236.556C120.251 236.771 119.831 236.884 119.403 236.885C118.975 236.885 118.555 236.773 118.185 236.559C117.814 236.345 117.507 236.036 117.294 235.666C117.081 235.295 116.969 234.874 116.971 234.446V159.926C116.971 158.072 117.459 156.251 118.386 154.644C119.312 153.038 120.645 151.704 122.251 150.776L149.131 135.256C149.466 135.063 149.845 134.961 150.232 134.962C150.618 134.962 150.998 135.064 151.333 135.258C151.667 135.451 151.945 135.73 152.138 136.065C152.331 136.4 152.432 136.78 152.431 137.166V144.996C152.433 146.056 152.158 147.098 151.631 148.017C151.105 148.937 150.346 149.702 149.431 150.236L129.781 161.536Z" fill="#FAFAFA"/>
<path d="M187.839 116.116C187.531 115.072 186.99 114.112 186.257 113.307C185.524 112.502 184.618 111.874 183.608 111.47C182.597 111.066 181.508 110.896 180.422 110.973C179.336 111.05 178.282 111.373 177.339 111.916L170.609 115.806C169.742 116.306 168.989 116.981 168.399 117.789C167.808 118.597 167.393 119.519 167.179 120.496L147.109 211.876C146.952 212.647 147.04 213.447 147.361 214.164C147.682 214.882 148.22 215.48 148.899 215.876L150.739 216.936C151.309 217.265 151.956 217.439 152.614 217.439C153.272 217.439 153.919 217.265 154.489 216.936L162.599 212.256C163.728 211.565 164.647 210.58 165.259 209.406C165.943 208.221 166.445 206.94 166.749 205.606L170.009 188.946L186.409 179.476L188.109 186.246C188.35 187.129 188.9 187.896 189.659 188.406C190.339 188.806 195.069 191.516 195.749 191.926C196.188 192.114 196.67 192.18 197.144 192.117C197.617 192.053 198.065 191.863 198.439 191.566L208.339 185.846L187.839 116.116ZM174.509 165.946L178.019 147.876L178.229 146.876L181.949 161.646L174.509 165.946Z" fill="#E0E0E0"/>
<path opacity="0.1" d="M195.67 191.876C194.78 191.346 190.32 188.796 189.67 188.406C188.911 187.896 188.36 187.129 188.12 186.246L186.42 179.476L190.96 176.856L194.21 189.756C194.45 190.605 194.963 191.35 195.67 191.876Z" fill="black"/>
<path opacity="0.1" d="M188.04 165.156L181.95 161.636L178.23 146.876C178.23 146.876 178.23 146.876 178.23 146.816C178.55 145.376 178.87 143.736 179.23 141.916C179.66 139.646 180.06 137.226 180.44 134.636C180.874 136.716 181.304 138.633 181.73 140.386C182.16 142.136 182.56 143.636 182.94 144.896L188.04 165.156Z" fill="black"/>
<path opacity="0.1" d="M153.309 214.877C153.255 215.117 153.264 215.366 153.335 215.602C153.407 215.837 153.538 216.05 153.717 216.22C153.895 216.389 154.114 216.509 154.353 216.568C154.592 216.627 154.842 216.623 155.079 216.557V216.637L154.509 216.957C153.939 217.286 153.292 217.459 152.634 217.459C151.976 217.459 151.329 217.286 150.759 216.957L148.899 215.877C148.22 215.481 147.682 214.882 147.361 214.164C147.04 213.447 146.952 212.647 147.109 211.877L167.169 120.537C167.353 119.692 167.692 118.888 168.169 118.167L174.259 121.687C173.777 122.401 173.437 123.203 173.259 124.047L153.309 214.877Z" fill="black"/>
<path d="M208.35 185.876L198.44 191.596C197.33 192.236 196.44 192.356 195.76 191.956C195.002 191.445 194.452 190.678 194.21 189.796L190.96 176.876L169.96 188.966L166.71 205.626C166.396 206.962 165.891 208.245 165.21 209.436C164.601 210.61 163.681 211.592 162.55 212.276L155.38 216.426C155.138 216.563 154.863 216.628 154.586 216.612C154.309 216.596 154.043 216.5 153.819 216.337C153.595 216.173 153.423 215.948 153.324 215.689C153.225 215.43 153.202 215.148 153.26 214.876L173.21 124.016C173.424 123.041 173.84 122.12 174.431 121.315C175.021 120.509 175.774 119.835 176.64 119.336L183.11 115.596C183.57 115.331 184.084 115.174 184.613 115.136C185.143 115.099 185.674 115.182 186.167 115.379C186.66 115.576 187.102 115.883 187.459 116.276C187.816 116.668 188.08 117.137 188.23 117.646L208.35 185.876ZM188.04 165.176L182.94 144.876C182.56 143.626 182.16 142.116 181.73 140.366C181.3 138.616 180.87 136.696 180.44 134.616C180.07 137.206 179.66 139.616 179.24 141.896C178.82 144.176 178.4 146.136 178.02 147.836L172.96 173.836L188.04 165.176Z" fill="#FAFAFA"/>
<path d="M255.75 150.876C257.496 147.874 259.03 144.753 260.34 141.536C261.693 138.22 262.828 134.82 263.74 131.356C264.66 127.857 265.361 124.303 265.84 120.716C266.33 117.094 266.578 113.442 266.58 109.786C266.687 104.412 265.999 99.0504 264.54 93.8764C263.499 89.9882 261.506 86.4207 258.74 83.4964C257.869 82.6619 256.894 81.9427 255.84 81.3564L249.84 77.8764C247.94 76.7752 245.803 76.1475 243.61 76.0464C240.09 75.8464 236.19 76.983 231.91 79.4564C227.431 82.0867 223.461 85.501 220.19 89.5364C216.583 93.915 213.545 98.7335 211.15 103.876C205.996 114.968 203.307 127.046 203.27 139.276C203.166 144.659 203.86 150.027 205.33 155.206C206.367 159.106 208.369 162.682 211.15 165.606C212.017 166.466 212.996 167.206 214.06 167.806C215.06 168.366 219.01 170.666 219.99 171.236C221.913 172.349 224.079 172.978 226.3 173.066C229.82 173.24 233.727 172.09 238.02 169.616C239.846 168.562 241.582 167.358 243.21 166.016L245.69 168.866C246.028 169.213 246.411 169.513 246.83 169.756C247.53 170.166 252.51 173.026 252.89 173.256C253.558 173.667 254.338 173.856 255.12 173.796C256.568 173.623 257.959 173.128 259.19 172.346L269.7 166.286L255.75 150.876ZM246.37 125.776C245.733 129.304 244.71 132.752 243.32 136.056C242.101 138.985 240.468 141.723 238.47 144.186C236.645 146.435 234.43 148.335 231.93 149.796C230.098 150.983 227.989 151.672 225.81 151.796C224.714 150.02 223.932 148.068 223.5 146.026C222.731 142.493 222.375 138.882 222.44 135.266C222.421 131.262 222.776 127.265 223.5 123.326C224.121 119.8 225.127 116.353 226.5 113.046C227.73 110.105 229.373 107.354 231.38 104.876C233.217 102.598 235.453 100.673 237.98 99.1964C239.779 98.0459 241.847 97.3842 243.98 97.2764C245.088 99.0679 245.879 101.037 246.32 103.096C247.104 106.635 247.477 110.252 247.43 113.876C247.442 117.88 247.087 121.877 246.37 125.816V125.776Z" fill="#E0E0E0"/>
<path opacity="0.1" d="M219.74 171.126C218.47 170.396 214.98 168.366 214.06 167.846C212.996 167.246 212.017 166.506 211.15 165.646C208.369 162.722 206.367 159.146 205.33 155.246C203.86 150.067 203.166 144.699 203.27 139.316C203.27 133.159 203.961 127.02 205.33 121.016C206.55 115.549 208.319 110.218 210.61 105.106L216.7 108.626C211.89 119.406 209.39 131.073 209.36 142.876C209.255 148.256 209.95 153.621 211.42 158.796C212.455 162.7 214.457 166.28 217.24 169.206C218 169.936 218.839 170.58 219.74 171.126Z" fill="black"/>
<path opacity="0.1" d="M249.411 99.8764C248.822 99.1391 248.088 98.5318 247.253 98.0929C246.418 97.654 245.501 97.393 244.561 97.3264C244.391 97.3264 244.211 97.3264 244.041 97.3264C245.143 99.1158 245.931 101.081 246.371 103.136C247.135 106.664 247.491 110.268 247.431 113.876C247.446 117.9 247.091 121.917 246.371 125.876C245.734 129.404 244.711 132.852 243.321 136.156C242.102 139.085 240.468 141.823 238.471 144.286C236.646 146.535 234.43 148.435 231.931 149.896C230.099 151.083 227.99 151.772 225.811 151.896C226.029 152.248 226.273 152.582 226.541 152.896C227.127 153.639 227.866 154.248 228.708 154.681C229.55 155.114 230.475 155.361 231.421 155.406C233.768 155.395 236.061 154.7 238.021 153.406C240.52 151.945 242.736 150.045 244.561 147.796C246.554 145.33 248.187 142.592 249.411 139.666C250.802 136.359 251.825 132.908 252.461 129.376C253.182 125.417 253.537 121.4 253.521 117.376C253.578 113.778 253.223 110.184 252.461 106.666C251.984 104.197 250.94 101.873 249.411 99.8764Z" fill="black"/>
<path opacity="0.1" d="M244.941 164.556C244.371 165.076 243.801 165.556 243.211 166.056L245.691 168.906C246.029 169.253 246.412 169.553 246.831 169.796C247.511 170.196 252.201 172.886 252.831 173.266C252.443 173.029 252.087 172.743 251.771 172.416L244.941 164.556Z" fill="black"/>
<path d="M269.7 166.326L259.19 172.396C257.959 173.169 256.573 173.661 255.13 173.836C254.501 173.867 253.873 173.756 253.293 173.51C252.712 173.264 252.195 172.89 251.78 172.416L244.94 164.556C242.826 166.503 240.505 168.213 238.02 169.656C233.727 172.13 229.82 173.28 226.3 173.106C222.892 172.981 219.656 171.574 217.24 169.166C214.461 166.237 212.46 162.658 211.42 158.756C209.959 153.593 209.265 148.242 209.36 142.876C209.398 130.646 212.086 118.568 217.24 107.476C219.639 102.322 222.684 97.4933 226.3 93.1064C229.573 89.0733 233.543 85.6594 238.02 83.0264C242.3 80.5464 246.2 79.4097 249.72 79.6164C253.115 79.7785 256.325 81.2054 258.72 83.6164C261.492 86.5405 263.486 90.1127 264.52 94.0064C265.988 99.162 266.682 104.507 266.58 109.866C266.581 113.522 266.338 117.173 265.85 120.796C265.362 124.399 264.654 127.969 263.73 131.486C262.815 134.947 261.676 138.344 260.32 141.656C259.014 144.875 257.48 147.996 255.73 150.996L269.7 166.326ZM222.44 135.326C222.376 138.945 222.731 142.56 223.5 146.096C223.971 148.552 224.997 150.868 226.5 152.866C227.091 153.605 227.831 154.21 228.672 154.643C229.513 155.076 230.436 155.326 231.38 155.376C233.728 155.363 236.021 154.669 237.98 153.376C240.48 151.915 242.696 150.015 244.52 147.766C246.517 145.3 248.153 142.563 249.38 139.636C250.755 136.327 251.761 132.876 252.38 129.346C253.107 125.388 253.462 121.371 253.44 117.346C253.503 113.747 253.147 110.153 252.38 106.636C251.911 104.18 250.885 101.864 249.38 99.8664C248.79 99.1288 248.054 98.5214 247.217 98.0826C246.381 97.6437 245.462 97.3828 244.52 97.3164C242.199 97.2973 239.923 97.9654 237.98 99.2364C235.452 100.706 233.215 102.628 231.38 104.906C229.377 107.387 227.735 110.137 226.5 113.076C225.132 116.385 224.126 119.831 223.5 123.356C222.777 127.292 222.422 131.285 222.44 135.286V135.326Z" fill="#FAFAFA"/>
</svg>
