<svg width="43" height="42" viewBox="0 0 43 42" fill="none" xmlns="http://www.w3.org/2000/svg">
<path d="M1.76909 2.45615H6.72232V6.37886C5.29292 6.8858 4.26617 8.25085 4.26617 9.85185C4.26617 11.8833 5.91883 13.5361 7.95039 13.5361C9.98195 13.5361 11.6346 11.8833 11.6346 9.85185C11.6346 8.25085 10.6079 6.8858 9.17846 6.37886V2.45615H16.5472V6.37886C15.1178 6.8858 14.0911 8.25085 14.0911 9.85185C14.0911 11.8833 15.7437 13.5361 17.7753 13.5361C19.8069 13.5361 21.4595 11.8833 21.4595 9.85185C21.4595 8.25085 20.4328 6.8858 19.0034 6.37886V2.45615H23.9565C24.6347 2.45615 25.1846 1.9063 25.1846 1.22807C25.1846 0.549849 24.6347 0 23.9565 0H1.76909C1.09086 0 0.541016 0.549849 0.541016 1.22807C0.541016 1.9063 1.09078 2.45615 1.76909 2.45615ZM23.9563 11.707C23.9563 12.3852 24.5061 12.935 25.1843 12.935H25.5939V10.4789H25.1843C24.506 10.4789 23.9563 11.0287 23.9563 11.707ZM40.0033 12.935C40.6816 12.935 41.2314 12.3852 41.2314 11.707C41.2314 11.0287 40.6816 10.4789 40.0033 10.4789H39.5938V12.935H40.0033ZM39.5938 9.25066C39.5938 7.21918 37.941 5.56644 35.9096 5.56644H33.8219V5.157C33.8219 4.47878 33.2719 3.92893 32.5938 3.92893C31.9155 3.92893 31.3657 4.47878 31.3657 5.157V5.56644H29.278C27.2464 5.56644 25.5938 7.21918 25.5938 9.25066V10.4789H39.5938V9.25066ZM41.2312 20.6313H1.76909C1.09086 20.6313 0.541016 21.1811 0.541016 21.8594V25.5438H42.4592V21.8594C42.4592 21.1811 41.9093 20.6313 41.2312 20.6313ZM12.8628 42H22.7284V28H12.8628V42ZM15.3192 34.1813C15.3192 33.5031 15.869 32.9532 16.5472 32.9532C17.2255 32.9532 17.7753 33.5031 17.7753 34.1813V35.8188C17.7753 36.497 17.2255 37.0469 16.5472 37.0469C15.869 37.0469 15.3192 36.497 15.3192 35.8188V34.1813ZM0.541016 40.7719C0.541016 41.4502 1.09086 42 1.76909 42H10.4067V28H0.541016V40.7719ZM5.49359 34.1813C5.49359 33.5031 6.04344 32.9532 6.72166 32.9532C7.39988 32.9532 7.94973 33.5031 7.94973 34.1813V35.8188C7.94973 36.497 7.39988 37.0469 6.72166 37.0469C6.04344 37.0469 5.49359 36.497 5.49359 35.8188V34.1813ZM31.3249 32.9123H36.3188V37.0879H31.3249V32.9123Z" fill="#1881B0"/>
</svg>
